<?xml version="1.0" encoding="utf-8"?>
<!-- Generator: Adobe Illustrator 22.0.1, SVG Export Plug-In . SVG Version: 6.00 Build 0)  -->
<svg version="1.1" id="Layer_1" xmlns="http://www.w3.org/2000/svg" xmlns:xlink="http://www.w3.org/1999/xlink" x="0px" y="0px"
	 viewBox="0 0 126 126" style="enable-background:new 0 0 126 126;" xml:space="preserve">
<style type="text/css">
	.st0{fill:none;stroke:#FFFFFF;stroke-width:1.2;stroke-miterlimit:10;}
</style>
<path class="st0" d="M55.015831,73.3821182V51.0468102c0-4.4093361-3.5744781-7.9838142-7.9838142-7.9838142h-0.0000191
	c-4.4093361,0-7.9838142,3.5744781-7.9838142,7.9838142v22.3353081"/>
<line class="st0" x1="39.0481834" y1="73.3821182" x2="39.0481834" y2="82.9370041"/>
<line class="st0" x1="37.3313255" y1="82.6691818" x2="40.8834496" y2="82.6691818"/>
<line class="st0" x1="47.0024071" y1="73.3821182" x2="47.0024071" y2="82.9370041"/>
<line class="st0" x1="45.2855453" y1="82.6691818" x2="48.8376694" y2="82.6691818"/>
<line class="st0" x1="62.9108505" y1="73.3821182" x2="62.9108505" y2="82.9370041"/>
<line class="st0" x1="61.1939888" y1="82.6691818" x2="64.7461166" y2="82.6691818"/>
<line class="st0" x1="78.8192902" y1="73.3821182" x2="78.8192902" y2="82.9370041"/>
<line class="st0" x1="77.1024323" y1="82.6691818" x2="80.6545563" y2="82.6691818"/>
<line class="st0" x1="54.9566269" y1="73.3821182" x2="54.9566269" y2="82.9370041"/>
<line class="st0" x1="53.239769" y1="82.6691818" x2="56.791893" y2="82.6691818"/>
<line class="st0" x1="39.0481834" y1="73.3821182" x2="55.015831" y2="73.3821182"/>
<line class="st0" x1="39.0481834" y1="51.1144791" x2="55.015831" y2="51.1144791"/>
<path class="st0" d="M70.9242706,73.3821182V51.0468102c0-4.4093361-3.5744705-7.9838142-7.9838104-7.9838142h-0.0000191
	c-4.4093361,0-7.9838142,3.5744781-7.9838142,7.9838142v22.3353081"/>
<line class="st0" x1="70.8650742" y1="73.3821182" x2="70.8650742" y2="82.9370041"/>
<line class="st0" x1="69.1482086" y1="82.6691818" x2="72.7003326" y2="82.6691818"/>
<line class="st0" x1="54.9566269" y1="73.3821182" x2="70.9242706" y2="73.3821182"/>
<line class="st0" x1="54.9566269" y1="51.1144791" x2="70.9242706" y2="51.1144791"/>
<path class="st0" d="M86.8327179,73.3821182V51.0468102c0-4.4093361-3.5744781-7.9838142-7.9838181-7.9838142h-0.0000153
	c-4.4093399,0-7.9838104,3.5744781-7.9838104,7.9838142v22.3353081"/>
<line class="st0" x1="86.8334122" y1="73.3821182" x2="86.8334122" y2="82.9370041"/>
<line class="st0" x1="85.1165543" y1="82.6691818" x2="88.6686783" y2="82.6691818"/>
<line class="st0" x1="70.8650742" y1="73.3821182" x2="86.8327179" y2="73.3821182"/>
<line class="st0" x1="70.8650742" y1="51.1144791" x2="86.8327179" y2="51.1144791"/>
</svg>
