<svg xmlns="http://www.w3.org/2000/svg" width="29" height="29" viewBox="0 0 29 29"><defs><clipPath id="lffea"><path fill="#fff" d="M12 0c6.627 0 12 5.372 12 12 0 6.627-5.373 12-12 12S0 18.627 0 12C0 5.372 5.373 0 12 0z"/></clipPath><clipPath id="lffeb"><path fill="#fff" d="M19.368 19.368a.5.5 0 0 1 .707 0l8.557 8.556a.5.5 0 0 1-.708.707l-8.556-8.556a.5.5 0 0 1 0-.707z"/></clipPath></defs><g><g><g><path fill="none" stroke="#fff" stroke-miterlimit="20" stroke-width="2" d="M12 0c6.627 0 12 5.372 12 12 0 6.627-5.373 12-12 12S0 18.627 0 12C0 5.372 5.373 0 12 0z" clip-path="url(&quot;#lffea&quot;)"/></g><g><path fill="none" stroke="#fff" stroke-miterlimit="20" stroke-width="2" d="M19.368 19.368a.5.5 0 0 1 .707 0l8.557 8.556a.5.5 0 0 1-.708.707l-8.556-8.556a.5.5 0 0 1 0-.707z" clip-path="url(&quot;#lffeb&quot;)"/></g></g></g></svg>