<?xml version="1.0" encoding="utf-8"?>
<!-- Generator: Adobe Illustrator 22.0.1, SVG Export Plug-In . SVG Version: 6.00 Build 0)  -->
<svg version="1.1" id="Layer_1" xmlns="http://www.w3.org/2000/svg" xmlns:xlink="http://www.w3.org/1999/xlink" x="0px" y="0px"
	 viewBox="0 0 88 88" style="enable-background:new 0 0 88 88;" xml:space="preserve">
<style type="text/css">
	.st0{opacity:0.1;fill:#007D2F;}
	.st1{fill:none;stroke:#007D2F;stroke-width:1.2;stroke-miterlimit:10;}
	.st2{fill:#007D2F;}
</style>
<g>
	<path class="st0" d="M43.929142,41.8502541c-2.8523407,0-5.173336-2.3209953-5.173336-5.173336
		s2.3209953-5.1733379,5.173336-5.1733379c2.8528519,0,5.1738472,2.3209972,5.1738472,5.1733379
		S46.7819939,41.8502541,43.929142,41.8502541z"/>
	<path class="st1" d="M41.5015068,23.3724709c0.6067009-2.4423389,2.4946518-4.240303,2.4946518-4.240303
		s2.3000412,2.1875534,2.6371346,5.0044842"/>
	<path class="st1" d="M32.8334236,29.0138321c-1.2885723-2.1500568-1.2210789-4.7498779-1.2210789-4.7498779
		s3.1690235-0.0748081,5.4015713,1.6783428"/>
	<path class="st1" d="M30.7131786,39.1502838c-2.4348412-0.6068802-4.2328033-2.4948311-4.2328033-2.4948311
		s2.1875515-2.3073578,5.0044842-2.6371346"/>
	<path class="st1" d="M36.3695374,47.8108711c-2.1500549,1.2960701-4.7571926,1.2285767-4.7571926,1.2285767
		s-0.0824909-3.1690216,1.6779766-5.4015694"/>
	<path class="st1" d="M46.4984932,49.9459305c-0.6143799,2.4273415-2.5023346,4.2254868-2.5023346,4.2254868
		s-2.2998581-2.1877365-2.6294518-5.0044823"/>
	<path class="st1" d="M55.1515808,44.2822533c1.2960701,2.1500587,1.2360764,4.7571945,1.2360764,4.7571945
		s-3.1690254,0.0824928-5.4015732-1.6706581"/>
	<path class="st1" d="M57.2868195,34.1533012c2.4348412,0.6141968,4.2328072,2.5021515,4.2328072,2.5021515
		s-2.1875534,2.3000374-5.0119858,2.6296349"/>
	<path class="st1" d="M51.6379585,25.4927139c2.1500587-1.2885704,4.7496986-1.2287598,4.7496986-1.2287598
		s0.0749893,3.1542091-1.6706619,5.3942547v0.0074997"/>
	<path class="st1" d="M42.8093987,29.4969177c0.2999992-1.210001,0.1199989-3-0.6000023-4.8400002
		c-0.1799965-0.4699993-0.4199982-0.8899994-0.7099991-1.2800007c-1.4300003-2.0599995-3.8499985-3.0499992-3.8499985-3.0499992
		s-1.3500023,2.8700008-0.6399994,5.6200008c0.0599976,0.2099991,0.1199989,0.4299984,0.2099991,0.6499996
		c0.7099991,1.8199997,1.7599983,3.2600002,2.7999992,3.9499989"/>
	<path class="st1" d="M38.0593987,32.3969193c-0.6500015-1.0600014-2.0400009-2.170002-3.8100014-2.960001
		c-0.4599991-0.210001-0.9399986-0.3400002-1.4199982-0.4200001c-2.4700012-0.4300003-4.8700008,0.5699997-4.8700008,0.5699997
		s1.0799999,2.9899979,3.5299988,4.4300003c0.1900005,0.1199989,0.3900013,0.2299995,0.6000004,0.3199997
		c1.7700005,0.7700005,3.5200005,1.0499992,4.7400017,0.8199997"/>
	<path class="st1" d="M37.8793869,40.656929c-0.7000122,1.0199585-2.1300049,2.0799561-3.9400024,2.7799683
		c-0.2099609,0.0800171-0.4299927,0.1500244-0.6499634,0.2000122c-2.7500019,0.710022-5.619997-0.6400146-5.619997-0.6400146
		s0.9899902-2.4199829,3.039978-3.8499756c0.3900146-0.2800293,0.8200073-0.5200195,1.289978-0.7000122
		c1.8099995-0.710022,3.5700092-0.9000244,4.7800312-0.6099854C36.9293747,38.86689,37.3193893,39.8269119,37.8793869,40.656929z"/>
	<path class="st1" d="M42.4993973,43.7669182v0.0099983c0.2400017,1.2200012-0.0200005,2.9900017-0.8199997,4.7800026
		c-0.0900002,0.2099991-0.1899986,0.4199982-0.3100014,0.6099968c-1.4499969,2.4500008-4.4299965,3.5200005-4.4299965,3.5200005
		s-1-2.3999977-0.5700035-4.8799973c0.0800018-0.4700012,0.2100029-0.9400024,0.4100037-1.4000015
		c0.7899971-1.7900009,1.9099998-3.1800003,2.9599991-3.8300018"/>
	<path class="st1" d="M47.9093971,42.7269173c0.0200005,0,0.0400009,0.0200005,0.0600014,0.0299988
		c1.0400009,0.6900024,2.0999985,2.1200027,2.8100014,3.9500008c0.0899963,0.2200012,0.1599998,0.4400024,0.2099991,0.6599998
		c0.7099991,2.75-0.6500015,5.6100006-0.6500015,5.6100006s-2.3999977-0.9899979-3.8400002-3.0299988
		c-0.2900009-0.3899994-0.5299988-0.8199997-0.7099991-1.2999992c-0.7200012-1.8400002-0.9000015-3.6400032-0.5900002-4.8500023"/>
	<path class="st1" d="M60.0294113,43.7169266c0,0-2.4100342,1-4.8800049,0.5700073
		c-0.4700317-0.0800171-0.9400024-0.210022-1.4000244-0.4200439c-1.8399658-0.8099976-3.25-1.9699707-3.8800049-3.0499878
		c0.5599976-0.7799683,0.9500122-1.6699829,1.1500244-2.6400146c0.0299683-0.0100098,0.0599976-0.0100098,0.0999756-0.0199585
		c1.2300415-0.2400513,3,0.0199585,4.7900391,0.8099976c0.2099609,0.0899658,0.3999634,0.1999512,0.5999756,0.3200073
		C58.959404,40.7268753,60.0294113,43.7169266,60.0294113,43.7169266z"/>
	<path class="st1" d="M51.0793991,35.4369164c1.2099991,0.3400002,3.0499992,0.1599998,4.9199982-0.5699997
		c0.4599991-0.1800003,0.9000015-0.4199982,1.2900009-0.7099991c2.0499992-1.4300003,3.0400009-3.8500004,3.0400009-3.8500004
		s-2.8600006-1.3500004-5.6100006-0.6499996v0.0100002c-0.2200012,0.039999-0.4399986,0.1199989-0.6599998,0.1999989
		c-1.8300018,0.710001-3.2799988,1.7800007-3.9599991,2.8100014c-0.0200005,0.0299988-0.0400009,0.0499992-0.0500031,0.079998"/>
	<path class="st1" d="M45.5093994,29.5769176c0-0.0200005-0.0100021-0.0300007-0.0100021-0.0499992
		c-0.2399979-1.2200012,0.0300026-2.9900017,0.8199997-4.7800007c0.0900002-0.210001,0.1900024-0.4200001,0.3100014-0.6100006
		c1.4399986-2.4399986,4.4300003-3.5100002,4.4300003-3.5100002s1.0099983,2.4000015,0.579998,4.8700008
		c-0.079998,0.4699993-0.2199974,0.9400005-0.4199982,1.3999996c-0.8100014,1.8299999-1.9599991,3.25-3.0400009,3.8800011"/>
	<path class="st1" d="M49.8693962,40.8169174c-0.5199966,0.7599983-1.1899986,1.4099998-1.9599991,1.9099998
		c-0.8099976,0.5299988-1.7199974,0.9000015-2.7099991,1.0699997c-0.4099998,0.0800018-0.8400002,0.1199989-1.2700005,0.1199989
		c-0.4899979,0-0.9700012-0.0499992-1.4300003-0.1399994v-0.0099983c-1.0099983-0.1900024-1.9500008-0.6100006-2.7599983-1.1900024
		c-0.7400017-0.5099983-1.3700027-1.1699982-1.8600006-1.9199982c-0.5600014-0.8300018-0.9500008-1.7900009-1.0999985-2.8199997
		c-0.0800018-0.3800011-0.1100006-0.7799988-0.1100006-1.1800003c0-0.5099983,0.0499992-1.0200005,0.1599998-1.5
		c0.2099991-1.0200005,0.6299973-1.9500008,1.2299995-2.7599983c0.5299988-0.7400017,1.1899986-1.3700008,1.9599991-1.8500023
		c0.8300018-0.539999,1.7700005-0.9099998,2.7900009-1.0499992c0.3600006-0.0699997,0.7399979-0.1000004,1.1199989-0.1000004
		c0.5400009,0,1.0699997,0.0599995,1.5800018,0.1800003c0.9799995,0.2099991,1.8899994,0.6299992,2.6699982,1.2000008
		c0.7400017,0.5299988,1.3800011,1.1999989,1.8699989,1.9799976c0.5100021,0.8000031,0.8700027,1.7100029,1.0300026,2.6800003
		c0.0699997,0.3899994,0.1100006,0.8000031,0.1100006,1.2200012c0,0.5200005-0.0600014,1.0299988-0.170002,1.5200005"/>
	<line class="st1" x1="43.9961586" y1="54.1714172" x2="43.9961586" y2="68.8678284"/>
	<g>
		<circle class="st2" cx="43.964386" cy="32.4393616" r="0.8029051"/>
		<circle class="st2" cx="40.9679832" cy="33.6805153" r="0.8029051"/>
		<circle class="st2" cx="39.7268333" cy="36.676918" r="0.8029051"/>
		<circle class="st2" cx="40.9679832" cy="39.6733208" r="0.8029051"/>
		<circle class="st2" cx="43.964386" cy="40.9144707" r="0.8029051"/>
		<circle class="st2" cx="46.9607887" cy="39.6733208" r="0.8029051"/>
		<circle class="st2" cx="48.2019424" cy="36.676918" r="0.8029051"/>
		<circle class="st2" cx="46.9607887" cy="33.6805153" r="0.8029051"/>
		<circle class="st2" cx="43.964386" cy="36.676918" r="0.8029051"/>
	</g>
	<path class="st1" d="M48.4249573,58.8645172c-1.8416519,1.0819397-2.0363045,3.204525-0.9543648,5.0461769
		c1.0819435,1.8416557,3.0307693,2.7049751,4.8724213,1.6230354s4.3882217-7.0635185,4.3882217-7.0635185
		S50.2666092,57.7825737,48.4249573,58.8645172z"/>
	<line class="st1" x1="47.4705925" y1="63.9106941" x2="44.1066017" y2="65.8869858"/>
	<path class="st1" d="M39.7371521,56.0972633c1.8416519,1.0819397,2.0363045,3.204525,0.954361,5.0461769
		c-1.0819397,1.8416519-3.0307693,2.7049751-4.8724213,1.6230354c-1.8416519-1.0819435-4.3882217-7.0635185-4.3882217-7.0635185
		S37.8955002,55.0153198,39.7371521,56.0972633z"/>
	<line class="st1" x1="40.6915131" y1="61.1434402" x2="44.0555077" y2="63.1197319"/>
</g>
</svg>
