<?xml version="1.0" encoding="utf-8"?>
<!-- Generator: Adobe Illustrator 22.0.1, SVG Export Plug-In . SVG Version: 6.00 Build 0)  -->
<svg version="1.1" id="Layer_1" xmlns="http://www.w3.org/2000/svg" xmlns:xlink="http://www.w3.org/1999/xlink" x="0px" y="0px"
	 viewBox="0 0 51.335083 66.2287064" style="enable-background:new 0 0 51.335083 66.2287064;" xml:space="preserve">
<style type="text/css">
	.st0{opacity:0.1;fill:#007D2F;}
	.st1{fill:none;stroke:#007D2F;stroke-miterlimit:10;}
</style>
<path class="st0" d="M31.2637558,21.4835358c-0.6621094,0-1.2919922-0.0668945-1.8310547-0.1538086
	c0.4091797-1.5219727,1.2304688-3.4672852,2.6923828-4.4145508c0.8300781-0.5380859,1.9345703-0.8110352,3.28125-0.8110352
	c0.6669922,0,1.3027344,0.0683594,1.8447266,0.1567383c-0.4091797,1.5195313-1.2304688,3.4609375-2.6914063,4.4082031
	C33.7256699,21.2091217,32.6172714,21.4835358,31.2637558,21.4835358z"/>
<path class="st1" d="M32.3171082,34.5912895v19.7219887c0,3.6034164-2.9211445,6.524559-6.524559,6.524559h-0.0000134
	c-3.6034145,0-6.524559-2.9211426-6.524559-6.524559V34.5912895"/>
<path class="st1" d="M16.5246925,34.5912895v-6.4504223h18.5356979v6.4504223h-2.7432823v19.7219887
	c0,3.6034164-2.9211445,6.524559-6.524559,6.524559h-0.0000134c-3.6034145,0-6.524559-2.9211426-6.524559-6.524559V34.5912895
	H16.5246925z"/>
<path class="st1" d="M12.4490461,17.8016205c3.8555193,4.4813862,11.6112108,4.1307411,11.6112108,4.1307411
	s1.5046597-7.6164112-2.3508587-12.0977983S10.0981874,5.7038226,10.0981874,5.7038226S8.5935268,13.3202324,12.4490461,17.8016205z
	"/>
<path class="st1" d="M12.4490461,17.8016205c3.8555193,4.4813862,11.6112108,4.1307411,11.6112108,4.1307411
	s1.5046597-7.6164112-2.3508587-12.0977983S10.0981874,5.7038226,10.0981874,5.7038226S8.5935268,13.3202324,12.4490461,17.8016205z
	"/>
<path class="st0" d="M18.8221684,19.1470623c-2.0436096-0.6541767-3.6082335-1.603159-4.6529007-2.8206005
	c-2.0488186-2.37957-2.3801851-6.0292511-2.3129101-8.5818386c1.046566,0.1312375,2.2685881,0.3592181,3.4976349,0.7526469
	c2.0372105,0.6521273,3.5996552,1.5968847,4.6413155,2.807188c1.9492226,2.2718239,2.3669491,5.8776951,2.3095818,8.5922413
	C21.2636356,19.765398,20.0448151,19.5384426,18.8221684,19.1470623z"/>
<path class="st1" d="M35.6466064,22.3478546c-3.4389915,2.2299652-8.5308475,0.4845371-8.5308475,0.4845371
	s0.4838486-5.3609142,3.9228401-7.5908804s8.5308475-0.4845371,8.5308475-0.4845371S39.085598,20.1178894,35.6466064,22.3478546z"/>
<path class="st1" d="M33.7726593,18.1644688"/>
<path class="st1" d="M25.2250843,25.5166302c2.2700005-3.7800007,5.9899998-7.0799999,10.2500019-8.4300003"/>
<path class="st1" d="M35.6466064,22.3478546c-3.4389915,2.2299652-8.5308475,0.4845371-8.5308475,0.4845371
	s0.4838486-5.3609142,3.9228401-7.5908804s8.5308475-0.4845371,8.5308475-0.4845371S39.085598,20.1178894,35.6466064,22.3478546z"/>
<path class="st0" d="M25.791214,58.8409233c-1.2060547,0-2.3417969-0.4707031-3.1962891-1.324707
	c-0.8535156-0.8535156-1.3242188-1.9921875-1.3242188-3.2055664V32.5909233h-2.75v-2.4501972h14.5400391v2.4501972h-2.7402344
	v21.7197266C30.3205109,56.8086967,28.2882843,58.8409233,25.791214,58.8409233z"/>
<path class="st1" d="M15.7571087,11.2108908c0,0,10.0499992,7.9499998,10.039999,18.8499985v15.120739"/>
</svg>
