<?xml version="1.0" encoding="utf-8"?>
<!-- Generator: Adobe Illustrator 22.0.1, SVG Export Plug-In . SVG Version: 6.00 Build 0)  -->
<svg version="1.1" id="Layer_1" xmlns="http://www.w3.org/2000/svg" xmlns:xlink="http://www.w3.org/1999/xlink" x="0px" y="0px"
	 viewBox="0 0 51.335083 66.2287064" style="enable-background:new 0 0 51.335083 66.2287064;" xml:space="preserve">
<style type="text/css">
	.st0{fill:none;stroke:#FFFFFF;stroke-miterlimit:10;}
</style>
<path class="st0" d="M32.3171082,34.5912895v19.7219887c0,3.6034164-2.9211445,6.524559-6.524559,6.524559h-0.0000134
	c-3.6034145,0-6.524559-2.9211426-6.524559-6.524559V34.5912895"/>
<path class="st0" d="M16.5246925,34.5912895v-6.4504223h18.5356979v6.4504223h-2.7432823v19.7219887
	c0,3.6034164-2.9211445,6.524559-6.524559,6.524559h-0.0000134c-3.6034145,0-6.524559-2.9211426-6.524559-6.524559V34.5912895
	H16.5246925z"/>
<path class="st0" d="M12.4490461,17.8016205c3.8555193,4.4813862,11.6112108,4.1307411,11.6112108,4.1307411
	s1.5046597-7.6164112-2.3508587-12.0977983S10.0981874,5.7038226,10.0981874,5.7038226S8.5935268,13.3202324,12.4490461,17.8016205z
	"/>
<path class="st0" d="M12.4490461,17.8016205c3.8555193,4.4813862,11.6112108,4.1307411,11.6112108,4.1307411
	s1.5046597-7.6164112-2.3508587-12.0977983S10.0981874,5.7038226,10.0981874,5.7038226S8.5935268,13.3202324,12.4490461,17.8016205z
	"/>
<path class="st0" d="M35.6466064,22.3478546c-3.4389915,2.2299652-8.5308475,0.4845371-8.5308475,0.4845371
	s0.4838486-5.3609142,3.9228401-7.5908804s8.5308475-0.4845371,8.5308475-0.4845371S39.085598,20.1178894,35.6466064,22.3478546z"/>
<path class="st0" d="M33.7726593,18.1644688"/>
<path class="st0" d="M25.2250843,25.5166302c2.2700005-3.7800007,5.9899998-7.0799999,10.2500019-8.4300003"/>
<path class="st0" d="M35.6466064,22.3478546c-3.4389915,2.2299652-8.5308475,0.4845371-8.5308475,0.4845371
	s0.4838486-5.3609142,3.9228401-7.5908804s8.5308475-0.4845371,8.5308475-0.4845371S39.085598,20.1178894,35.6466064,22.3478546z"/>
<path class="st0" d="M15.7571087,11.2108908c0,0,10.0499992,7.9499998,10.039999,18.8499985v15.120739"/>
</svg>
