<?xml version="1.0" encoding="utf-8"?>
<!-- Generator: Adobe Illustrator 22.0.1, SVG Export Plug-In . SVG Version: 6.00 Build 0)  -->
<svg version="1.1" id="Layer_1" xmlns="http://www.w3.org/2000/svg" xmlns:xlink="http://www.w3.org/1999/xlink" x="0px" y="0px"
	 viewBox="0 0 79.3333359 79.3333359" style="enable-background:new 0 0 79.3333359 79.3333359;" xml:space="preserve">
<style type="text/css">
	.st0{opacity:0.1;fill:#007D2F;}
	.st1{opacity:0.1;}
	.st2{fill:#007D2F;}
	.st3{fill:none;stroke:#007D2F;stroke-width:1.2;stroke-miterlimit:10;}
</style>
<g>
	<path class="st0" d="M37.5713959,58.2157478c-0.0253906,0-0.0673828-0.0039063-0.1259766-0.0390625l-11.0234375-6.7202148
		c-0.6523438-0.3964844-1.4003906-0.6049805-2.1650391-0.6049805c-0.3613281,0-0.7226563,0.046875-1.0742188,0.1391602
		l-5.4003906,1.5454102l-2.3740244-8.6098633l4.7773447-1.3564453l7.6962891-2.1181641l0.1865234-0.0375977l0.0458984-0.0214844
		c0.3164063-0.0683594,0.6386719-0.1035156,0.9609375-0.1035156c0.4140625,0,0.8242188,0.0571289,1.2207031,0.1694336
		c0.3525391,0.0957031,0.6601563,0.2182617,0.9638672,0.3803711l14.8603516,8.1401367
		c1.6673164,0.9049492,1.3759766,2.9853516,1.3759766,2.9853516l14.7265625-4.0610352
		c0.1474609-0.0405273,0.3037109-0.0615234,0.4570313-0.0615234c0.7753906,0,1.4355469,0.5053711,1.6435547,1.2573242
		c0.0332031,0.1342773,0.0585938,0.3134766,0.0585938,0.4555664c0,0.7597656-0.5126953,1.4301758-1.2470703,1.6303711
		l-10.953125,3.0107422l-14.5810547,4.0209961L37.5713959,58.2157478z"/>
	<g class="st1">
		<g>
			<path class="st2" d="M58.2117767,35.5345955c-0.5,1.1000977-1.3200684,2.3601074-2.4499512,2.8901367
				c-0.4799805,0.2299805-1.0800781,0.3500977-1.75,0.3500977c-0.7299805,0-1.4401855-0.130127-2.0400391-0.2900391
				c0.5-1.1101074,1.3100586-2.3701172,2.4499512-2.9001465c0.4799805-0.2299805,1.0700684-0.3398438,1.7399902-0.3398438
				C56.8917084,35.2448006,57.6016693,35.3746834,58.2117767,35.5345955z"/>
			<path class="st2" d="M58.2117767,35.5345955c-0.5,1.1000977-1.3200684,2.3601074-2.4499512,2.8901367
				c-0.4799805,0.2299805-1.0800781,0.3500977-1.75,0.3500977c-0.7299805,0-1.4401855-0.130127-2.0400391-0.2900391
				c0.5-1.1101074,1.3100586-2.3701172,2.4499512-2.9001465c0.4799805-0.2299805,1.0700684-0.3398438,1.7399902-0.3398438
				C56.8917084,35.2448006,57.6016693,35.3746834,58.2117767,35.5345955z"/>
			<path class="st2" d="M45.1917572,33.0048103c-1.130127-0.4501953-2.420166-1.2001953-3.0200195-2.3000488
				c-0.5800781-1.1101074-0.4799805-2.6000977-0.2299805-3.7900391c1.119873,0.4599609,2.4199219,1.1999512,3.0100098,2.3100586
				C45.5416107,30.3246346,45.4417572,31.8246346,45.1917572,33.0048103z"/>
			<path class="st2" d="M45.1917572,33.0048103c-1.130127-0.4501953-2.420166-1.2001953-3.0200195-2.3000488
				c-0.5800781-1.1101074-0.4799805-2.6000977-0.2299805-3.7900391c1.119873,0.4599609,2.4199219,1.1999512,3.0100098,2.3100586
				C45.5416107,30.3246346,45.4417572,31.8246346,45.1917572,33.0048103z"/>
			<path class="st2" d="M55.451767,25.2845955c-0.6401367,1.0800781-1.9799805,1.7700195-3.1201172,2.1601563
				c-0.1899414-1.1999512-0.2099609-2.6899414,0.4301758-3.7600098c0.6398926-1.0800781,1.9699707-1.7700195,3.119873-2.1599121
				C56.07164,22.724781,56.1016693,24.2147713,55.451767,25.2845955z"/>
			<path class="st2" d="M55.451767,25.2845955c-0.6401367,1.0800781-1.9799805,1.7700195-3.1201172,2.1601563
				c-0.1899414-1.1999512-0.2099609-2.6899414,0.4301758-3.7600098c0.6398926-1.0800781,1.9699707-1.7700195,3.119873-2.1599121
				C56.07164,22.724781,56.1016693,24.2147713,55.451767,25.2845955z"/>
		</g>
	</g>
	<path class="st3" d="M57.1678581,26.3167992c-1.7743378,2.964674-6.2758331,3.5347672-6.2758331,3.5347672
		s-1.6247177-4.2365932,0.1496201-7.2012672c1.7743416-2.964674,6.2758331-3.5347672,6.2758331-3.5347672
		S58.9421959,23.3521252,57.1678581,26.3167992z"/>
	<path class="st3" d="M56.6179695,40.2333946c-3.123642,1.476635-7.1815147-0.5536652-7.1815147-0.5536652
		s1.0065498-4.4243965,4.130188-5.9010353c3.1236382-1.476635,7.1815109,0.5536652,7.1815109,0.5536652
		S59.7416077,38.7567558,56.6179695,40.2333946z"/>
	<path class="st3" d="M40.4153481,31.642416c1.6276627,3.0476665,6.0960045,3.8365841,6.0960045,3.8365841
		s1.8293686-4.1523285,0.2017059-7.1999969c-1.6276665-3.0476685-6.0960045-3.8365841-6.0960045-3.8365841
		S38.7876816,28.5947475,40.4153481,31.642416z"/>
	<path class="st3" d="M66.3791885,49.5570564c0,1.619873-1.0700684,3.1098633-2.7199669,3.5598145l-10.9501953,3.0100098
		l-14.579834,4.0200195c-0.5900879,0.1499023-1.1901855,0.0600586-1.7099609-0.25l-6.2600117-3.8200684l-4.7800293-2.9099121
		c-0.5100098-0.3100586-1.1201172-0.3901367-1.6901855-0.2399902l-7.2949219,2.0849609l-3.4399405-12.4699707l6.1550283-1.7451172
		l0.5300293-0.1499023l7.7399902-2.1298828c0.0200195-0.0100098,0.0500488-0.0100098,0.0700684-0.0200195
		c1.1298828-0.2900391,2.2998047-0.2700195,3.3898926,0.0400391c0.4799805,0.1298828,0.9299316,0.3098145,1.3601093,0.5397949
		l14.8798828,8.1501465c0.9199219,0.5100098,1.5500488,1.3398438,1.8100586,2.2800293l12.7998047-3.5300293
		c1.9802246-0.5400391,4.0102501,0.6098633,4.5600548,2.5898438C66.3291397,48.8868904,66.3791885,49.2269783,66.3791885,49.5570564
		z"/>
	<path class="st3" d="M47.0819588,47.227417c0.9173546,0.5071564,1.5433273,1.3380966,1.8023071,2.2770576
		c0.2373734,0.8849487,0.150959,1.8560486-0.3237877,2.7301979l-0.0108032,0.0108032
		c-0.9819031,1.8020439-3.2265549,2.4604225-5.0177956,1.4782562l-10.0358505-5.4925461"/>
</g>
</svg>
