<?xml version="1.0" encoding="utf-8"?>
<!-- Generator: Adobe Illustrator 22.0.1, SVG Export Plug-In . SVG Version: 6.00 Build 0)  -->
<svg version="1.1" id="Layer_1" xmlns="http://www.w3.org/2000/svg" xmlns:xlink="http://www.w3.org/1999/xlink" x="0px" y="0px"
	 viewBox="0 0 79.3333359 79.3333359" style="enable-background:new 0 0 79.3333359 79.3333359;" xml:space="preserve">
<style type="text/css">
	.st0{fill:none;stroke:#FFFFFF;stroke-width:1.2;stroke-miterlimit:10;}
</style>
<path class="st0" d="M57.1678581,26.3167992c-1.7743378,2.964674-6.2758331,3.5347672-6.2758331,3.5347672
	s-1.6247177-4.2365932,0.1496201-7.2012672c1.7743416-2.964674,6.2758331-3.5347672,6.2758331-3.5347672
	S58.9421959,23.3521252,57.1678581,26.3167992z"/>
<path class="st0" d="M56.6179695,40.2333946c-3.123642,1.476635-7.1815147-0.5536652-7.1815147-0.5536652
	s1.0065498-4.4243965,4.130188-5.9010353c3.1236382-1.476635,7.1815109,0.5536652,7.1815109,0.5536652
	S59.7416077,38.7567558,56.6179695,40.2333946z"/>
<path class="st0" d="M40.4153481,31.642416c1.6276627,3.0476665,6.0960045,3.8365841,6.0960045,3.8365841
	s1.8293686-4.1523285,0.2017059-7.1999969c-1.6276665-3.0476685-6.0960045-3.8365841-6.0960045-3.8365841
	S38.7876816,28.5947475,40.4153481,31.642416z"/>
<path class="st0" d="M66.3791885,49.5570564c0,1.619873-1.0700684,3.1098633-2.7199669,3.5598145l-10.9501953,3.0100098
	l-14.579834,4.0200195c-0.5900879,0.1499023-1.1901855,0.0600586-1.7099609-0.25l-6.2600117-3.8200684l-4.7800293-2.9099121
	c-0.5100098-0.3100586-1.1201172-0.3901367-1.6901855-0.2399902l-7.2949219,2.0849609l-3.4399405-12.4699707l6.1550283-1.7451172
	l0.5300293-0.1499023l7.7399902-2.1298828c0.0200195-0.0100098,0.0500488-0.0100098,0.0700684-0.0200195
	c1.1298828-0.2900391,2.2998047-0.2700195,3.3898926,0.0400391c0.4799805,0.1298828,0.9299316,0.3098145,1.3601093,0.5397949
	l14.8798828,8.1501465c0.9199219,0.5100098,1.5500488,1.3398438,1.8100586,2.2800293l12.7998047-3.5300293
	c1.9802246-0.5400391,4.0102501,0.6098633,4.5600548,2.5898438C66.3291397,48.8868904,66.3791885,49.2269783,66.3791885,49.5570564z
	"/>
<path class="st0" d="M47.0819588,47.227417c0.9173546,0.5071564,1.5433273,1.3380966,1.8023071,2.2770576
	c0.2373734,0.8849487,0.150959,1.8560486-0.3237877,2.7301979l-0.0108032,0.0108032
	c-0.9819031,1.8020439-3.2265549,2.4604225-5.0177956,1.4782562l-10.0358505-5.4925461"/>
</svg>
