<svg xmlns="http://www.w3.org/2000/svg" width="15" height="10" viewBox="0 0 15 10"><g><g><path fill="#fff" d="M15.057 8.577a.947.947 0 0 0-.051-.098c-.262-.471-.762-1.05-1.5-1.735l-.015-.016-.008-.007-.008-.008h-.008a9.256 9.256 0 0 1-.636-.644c-.162-.21-.199-.422-.11-.636.063-.162.299-.504.707-1.028.214-.277.384-.5.51-.667.905-1.204 1.298-1.973 1.177-2.308l-.046-.078c-.032-.047-.113-.09-.243-.13a1.23 1.23 0 0 0-.503-.02l-2.26.016a.293.293 0 0 0-.158.004 8.817 8.817 0 0 0-.102.024l-.04.02-.03.023a.356.356 0 0 0-.087.082.547.547 0 0 0-.078.137 12.795 12.795 0 0 1-.84 1.766c-.194.325-.372.607-.534.845a4.085 4.085 0 0 1-.408.525c-.11.113-.21.204-.299.27-.088.07-.156.098-.204.088a3.67 3.67 0 0 1-.133-.032.52.52 0 0 1-.177-.192.864.864 0 0 1-.09-.307 3.343 3.343 0 0 1-.027-.317 6.827 6.827 0 0 1 .003-.377c.006-.162.008-.272.008-.33 0-.198.004-.415.012-.648.008-.233.014-.417.02-.553.005-.136.007-.28.007-.431 0-.152-.009-.272-.027-.358a1.204 1.204 0 0 0-.082-.25.422.422 0 0 0-.161-.19.917.917 0 0 0-.263-.106A5.296 5.296 0 0 0 7.313.81C6.34.8 5.714.862 5.437 1c-.11.057-.21.135-.298.234-.095.115-.108.179-.04.189.314.047.537.16.668.337l.047.095c.036.068.073.189.11.36.036.173.06.364.07.573.026.383.026.71 0 .982s-.05.484-.074.636a1.29 1.29 0 0 1-.2.541.138.138 0 0 1-.04.04.597.597 0 0 1-.212.039c-.073 0-.162-.036-.267-.11a1.867 1.867 0 0 1-.325-.302 4.037 4.037 0 0 1-.381-.538 9.425 9.425 0 0 1-.44-.816L3.93 3.03a20 20 0 0 1-.322-.64c-.136-.28-.257-.55-.361-.812a.52.52 0 0 0-.189-.252l-.039-.023a.812.812 0 0 0-.306-.118l-2.151.016c-.22 0-.369.05-.447.15l-.032.046a.255.255 0 0 0-.023.125c0 .058.015.129.047.213.314.738.655 1.45 1.024 2.135.369.685.69 1.238.962 1.656.272.419.55.814.832 1.186.282.371.47.61.561.714.092.104.164.183.216.235l.196.189c.126.125.31.276.554.45.243.177.512.35.808.52.296.17.64.308 1.033.415.392.108.774.151 1.146.13h.902c.183-.016.322-.073.416-.173l.032-.039a.53.53 0 0 0 .059-.145.8.8 0 0 0 .027-.216 2.59 2.59 0 0 1 .05-.609c.04-.18.085-.316.134-.407a.992.992 0 0 1 .303-.346.583.583 0 0 1 .063-.028c.125-.041.273-.001.443.122.17.123.33.275.48.455.148.181.328.384.537.61.21.224.392.391.55.502l.156.093c.105.064.241.121.409.173a.88.88 0 0 0 .44.04l2.009-.032c.198 0 .353-.032.463-.098.11-.065.175-.137.196-.216a.604.604 0 0 0 .004-.266.97.97 0 0 0-.055-.209z"/></g></g></svg>