<svg xmlns="http://www.w3.org/2000/svg" width="14" height="10" viewBox="0 0 14 10"><g><g><path fill="#fff" d="M13.555 4.998c0 1.028 0 2.118-.229 3.115-.16.7-.73 1.218-1.416 1.295-1.624.182-3.269.183-4.907.182-1.637.001-3.282 0-4.906-.182C1.41 9.33.84 8.813.68 8.113.452 7.116.452 6.026.452 4.998c0-1.027.003-2.116.231-3.114.16-.7.73-1.218 1.416-1.295C3.724.407 5.37.406 7.006.407c1.637-.001 3.282 0 4.907.182a1.66 1.66 0 0 1 1.416 1.295c.228.998.226 2.087.226 3.114zM9.48 4.872L5.313 2.687v4.357L9.48 4.872z"/></g></g></svg>