<?xml version="1.0" encoding="utf-8"?>
<!-- Generator: Adobe Illustrator 22.0.1, SVG Export Plug-In . SVG Version: 6.00 Build 0)  -->
<svg version="1.1" id="Layer_1" xmlns="http://www.w3.org/2000/svg" xmlns:xlink="http://www.w3.org/1999/xlink" x="0px" y="0px"
	 viewBox="0 0 110 117" style="enable-background:new 0 0 110 117;" xml:space="preserve">
<style type="text/css">
	.st0{fill:#FFFFFF;stroke:#007D2F;stroke-width:1.2;stroke-miterlimit:10;}
	.st1{opacity:0.1;fill:#007D2F;}
</style>
<g>
	<path class="st0" d="M37.4981918,58.5158882l-4.7030296-4.2429543c-0.6230392-0.562088-0.9786682-1.3618927-0.9786682-2.2010117
		v-6.0310669l4.7030334,4.2429504c0.6230354,0.562088,0.9786644,1.3618965,0.9786644,2.2010155V58.5158882z"/>
	<path class="st0" d="M37.4981918,65.926796l-4.7030296-4.2429504c-0.6230392-0.562088-0.9786682-1.3618927-0.9786682-2.2010117
		V53.451767l4.7030334,4.2429504c0.6230354,0.562088,0.9786644,1.3618965,0.9786644,2.2010155V65.926796z"/>
	<path class="st0" d="M37.4981918,73.3377075l-4.7030296-4.2429504c-0.6230392-0.562088-0.9786682-1.3618927-0.9786682-2.2010117
		v-6.0310707l4.7030334,4.2429543c0.6230354,0.562088,0.9786644,1.3618927,0.9786644,2.2010117V73.3377075z"/>
	<path class="st0" d="M37.4981918,58.5158882l4.7030334-4.2429543c0.6230354-0.562088,0.9786682-1.3618927,0.9786682-2.2010117
		v-6.0310669L38.47686,50.2838058c-0.6230392,0.562088-0.9786682,1.3618965-0.9786682,2.2010155V58.5158882z"/>
	<path class="st0" d="M37.4981918,65.926796l4.7030334-4.2429504c0.6230354-0.562088,0.9786682-1.3618927,0.9786682-2.2010117
		V53.451767L38.47686,57.6947174c-0.6230392,0.562088-0.9786682,1.3618965-0.9786682,2.2010155V65.926796z"/>
	<path class="st0" d="M37.4981918,73.3377075l4.7030334-4.2429504c0.6230354-0.562088,0.9786682-1.3618927,0.9786682-2.2010117
		v-6.0310707L38.47686,65.105629c-0.6230392,0.562088-0.9786682,1.3618927-0.9786682,2.2010117V73.3377075z"/>
	<line class="st0" x1="43.1798935" y1="46.0408554" x2="43.1798935" y2="42.416378"/>
	<line class="st0" x1="31.816494" y1="46.0408554" x2="31.816494" y2="42.416378"/>
	<line class="st0" x1="37.4981918" y1="51.5342064" x2="37.4981918" y2="39.30159"/>
	<line class="st0" x1="37.4981918" y1="82.5688019" x2="37.4981918" y2="70.3361893"/>
	<path class="st0" d="M55.2375984,55.5993614l-5.6387138-5.0870972c-0.746994-0.6739197-1.1733742-1.6328506-1.1733742-2.6389122
		v-7.2309685l5.63871,5.087101c0.746994,0.6739197,1.173378,1.6328506,1.173378,2.6389122V55.5993614z"/>
	<path class="st0" d="M55.2375984,64.4846954l-5.6387138-5.087101c-0.746994-0.6739159-1.1733742-1.6328468-1.1733742-2.6389122
		v-7.2309647l5.63871,5.087101c0.746994,0.6739159,1.173378,1.6328468,1.173378,2.6389122V64.4846954z"/>
	<path class="st0" d="M55.2375984,73.3700256l-5.6387138-5.0870972c-0.746994-0.6739197-1.1733742-1.6328506-1.1733742-2.6389084
		v-7.2309685l5.63871,5.087101c0.746994,0.6739197,1.173378,1.6328506,1.173378,2.6389084V73.3700256z"/>
	<path class="st0" d="M55.2375984,55.5993614l5.6387138-5.0870972c0.7469902-0.6739197,1.1733742-1.6328506,1.1733742-2.6389122
		v-7.2309685l-5.6387138,5.087101c-0.746994,0.6739197-1.1733742,1.6328506-1.1733742,2.6389122V55.5993614z"/>
	<path class="st0" d="M55.2375984,64.4846954l5.6387138-5.087101c0.7469902-0.6739159,1.1733742-1.6328468,1.1733742-2.6389122
		v-7.2309647l-5.6387138,5.087101c-0.746994,0.6739159-1.1733742,1.6328468-1.1733742,2.6389122V64.4846954z"/>
	<path class="st0" d="M55.2375984,73.3700256l5.6387138-5.0870972c0.7469902-0.6739197,1.1733742-1.6328506,1.1733742-2.6389084
		v-7.2309685l-5.6387138,5.087101c-0.746994,0.6739197-1.1733742,1.6328506-1.1733742,2.6389084V73.3700256z"/>
	<line class="st0" x1="62.0496864" y1="40.6423836" x2="62.0496864" y2="36.2968063"/>
	<line class="st0" x1="48.4255104" y1="40.6423836" x2="48.4255104" y2="36.2968063"/>
	<line class="st0" x1="55.2375984" y1="47.228653" x2="55.2375984" y2="32.5623245"/>
	<line class="st0" x1="55.2375984" y1="84.4376755" x2="55.2375984" y2="69.771347"/>
	<path class="st1" d="M33.9339638,53.0105515c-0.265625-0.2397461-0.4174805-0.581543-0.4174805-0.9384766v-2.2080078
		l1.8642578,1.6821289c0.265625,0.2397461,0.4174805,0.581543,0.4174805,0.9384766v2.2080078L33.9339638,53.0105515z"/>
	<path class="st1" d="M33.9339638,60.4216843c-0.265625-0.2397461-0.4174805-0.581543-0.4174805-0.9389648v-2.2075195
		l1.8642578,1.6816406c0.265625,0.2397461,0.4174805,0.581543,0.4174805,0.9389648v2.2075195L33.9339638,60.4216843z"/>
	<path class="st1" d="M33.9339638,67.8323288c-0.265625-0.2397461-0.4174805-0.581543-0.4174805-0.9384766v-2.2080078
		l1.8642578,1.6821289c0.265625,0.2397461,0.4174805,0.581543,0.4174805,0.9384766v2.2080078L33.9339638,67.8323288z"/>
	<path class="st1" d="M39.1986122,52.4846725c0-0.3574219,0.1518555-0.6992188,0.4169922-0.9384766l1.8642578-1.6821289v2.2080078
		c0,0.3569336-0.1518555,0.6987305-0.4174805,0.9384766l-1.8637695,1.6816406V52.4846725z"/>
	<path class="st1" d="M39.1986122,59.8958054c0-0.3574219,0.1518555-0.699707,0.4169922-0.9389648l1.8642578-1.6816406v2.2075195
		c0,0.3574219-0.1518555,0.6992188-0.4174805,0.9389648l-1.8637695,1.6816406V59.8958054z"/>
	<path class="st1" d="M39.1986122,67.3064499c0-0.3574219,0.1518555-0.6992188,0.4169922-0.9384766l1.8642578-1.6821289v2.2080078
		c0,0.3569336-0.1518555,0.6987305-0.4174805,0.9384766l-1.8637695,1.6816406V67.3064499z"/>
	<path class="st0" d="M72.5018082,58.5158882l-4.7030334-4.2429543c-0.6230392-0.562088-0.9786682-1.3618927-0.9786682-2.2010117
		v-6.0310669l4.7030334,4.2429504c0.6230392,0.562088,0.9786682,1.3618965,0.9786682,2.2010155V58.5158882z"/>
	<path class="st0" d="M72.5018082,65.926796l-4.7030334-4.2429504c-0.6230392-0.562088-0.9786682-1.3618927-0.9786682-2.2010117
		V53.451767l4.7030334,4.2429504c0.6230392,0.562088,0.9786682,1.3618965,0.9786682,2.2010155V65.926796z"/>
	<path class="st0" d="M72.5018082,73.3377075l-4.7030334-4.2429504c-0.6230392-0.562088-0.9786682-1.3618927-0.9786682-2.2010117
		v-6.0310707L71.52314,65.105629c0.6230392,0.562088,0.9786682,1.3618927,0.9786682,2.2010117V73.3377075z"/>
	<path class="st0" d="M72.5018082,58.5158882l4.7030334-4.2429543c0.6230316-0.562088,0.9786606-1.3618927,0.9786606-2.2010117
		v-6.0310669l-4.7030258,4.2429504c-0.6230392,0.562088-0.9786682,1.3618965-0.9786682,2.2010155V58.5158882z"/>
	<path class="st0" d="M72.5018082,65.926796l4.7030334-4.2429504c0.6230316-0.562088,0.9786606-1.3618927,0.9786606-2.2010117
		V53.451767l-4.7030258,4.2429504c-0.6230392,0.562088-0.9786682,1.3618965-0.9786682,2.2010155V65.926796z"/>
	<path class="st0" d="M72.5018082,73.3377075l4.7030334-4.2429504c0.6230316-0.562088,0.9786606-1.3618927,0.9786606-2.2010117
		v-6.0310707l-4.7030258,4.2429543c-0.6230392,0.562088-0.9786682,1.3618927-0.9786682,2.2010117V73.3377075z"/>
	<line class="st0" x1="78.1835022" y1="46.0408554" x2="78.1835022" y2="42.416378"/>
	<line class="st0" x1="68.8617783" y1="46.0408554" x2="68.8617783" y2="42.416378"/>
	<line class="st0" x1="72.5018082" y1="51.5342064" x2="72.5018082" y2="39.30159"/>
	<line class="st0" x1="72.5018082" y1="82.5688019" x2="72.5018082" y2="70.3361893"/>
	<path class="st1" d="M68.9375763,53.0105515c-0.265625-0.2397461-0.4174805-0.581543-0.4174805-0.9384766v-2.2080078
		l1.8642578,1.6821289c0.265625,0.2397461,0.4174805,0.581543,0.4174805,0.9384766v2.2080078L68.9375763,53.0105515z"/>
	<path class="st1" d="M68.9375763,60.4216843c-0.265625-0.2397461-0.4174805-0.581543-0.4174805-0.9389648v-2.2075195
		l1.8642578,1.6816406c0.265625,0.2397461,0.4174805,0.581543,0.4174805,0.9389648v2.2075195L68.9375763,60.4216843z"/>
	<path class="st1" d="M68.9375763,67.8323288c-0.265625-0.2397461-0.4174805-0.581543-0.4174805-0.9384766v-2.2080078
		l1.8642578,1.6821289c0.265625,0.2397461,0.4174805,0.581543,0.4174805,0.9384766v2.2080078L68.9375763,67.8323288z"/>
	<path class="st1" d="M74.2022247,52.4846725c0-0.3574219,0.1518555-0.6992188,0.4169922-0.9384766l1.8642578-1.6821289v2.2080078
		c0,0.3569336-0.1518555,0.6987305-0.4174805,0.9384766l-1.8637695,1.6816406V52.4846725z"/>
	<path class="st1" d="M74.2022247,59.8958054c0-0.3574219,0.1518555-0.699707,0.4169922-0.9389648l1.8642578-1.6816406v2.2075195
		c0,0.3574219-0.1518555,0.6992188-0.4174805,0.9389648l-1.8637695,1.6816406V59.8958054z"/>
	<path class="st1" d="M74.2022247,67.3064499c0-0.3574219,0.1518555-0.6992188,0.4169922-0.9384766l1.8642578-1.6821289v2.2080078
		c0,0.3569336-0.1518555,0.6987305-0.4174805,0.9384766l-1.8637695,1.6816406V67.3064499z"/>
	<path class="st1" d="M50.7376747,49.2502975c-0.3886719-0.3510742-0.6118164-0.8530273-0.6118164-1.3769531v-3.4077148
		l2.7998047,2.5258789c0.3886719,0.3510742,0.6118164,0.8530273,0.6118164,1.3769531v3.4077148L50.7376747,49.2502975z"/>
	<path class="st1" d="M50.7376747,58.1355515c-0.3886719-0.3510742-0.6118164-0.8530273-0.6118164-1.3769531v-3.4077148
		l2.7998047,2.5263672c0.3891602,0.3510742,0.6118164,0.8525391,0.6118164,1.3764648v3.4077148L50.7376747,58.1355515z"/>
	<path class="st1" d="M50.7376747,67.0208054c-0.3891602-0.3510742-0.6118164-0.8525391-0.6118164-1.3769531v-3.4077148
		l2.7998047,2.5263672c0.3891602,0.3510742,0.6118164,0.8525391,0.6118164,1.3764648v3.4077148L50.7376747,67.0208054z"/>
	<path class="st1" d="M56.93787,48.3684616c0-0.5239258,0.2231445-1.0258789,0.6123047-1.3774414l2.7993164-2.5253906v3.4077148
		c0,0.5239258-0.2231445,1.0258789-0.6123047,1.3774414L56.93787,51.7761765V48.3684616z"/>
	<path class="st1" d="M56.93787,57.2537155c0-0.5239258,0.2226563-1.0253906,0.6118164-1.3764648l2.7998047-2.5263672v3.4077148
		c0,0.5239258-0.2231445,1.0258789-0.6123047,1.3774414L56.93787,60.6614304V57.2537155z"/>
	<path class="st1" d="M56.93787,66.1389694c0-0.5239258,0.2226563-1.0253906,0.6118164-1.3764648l2.7998047-2.5263672v3.4077148
		c0,0.5244141-0.2226563,1.0258789-0.6118164,1.3769531L56.93787,69.5466843V66.1389694z"/>
</g>
</svg>
