<svg xmlns="http://www.w3.org/2000/svg" viewBox="0 0 266 112.4"><path d="M73.4 56.6c-.9.8-1.5 1.8-1.9 3.2h10.9c-.3-1.2-.9-2.3-1.7-3.1-.9-.9-2.2-1.4-3.6-1.4-1.5 0-2.7.5-3.7 1.3zm54 0c-.9.8-1.5 1.8-1.9 3.2h10.9c-.3-1.2-.9-2.3-1.7-3.1-.9-.9-2.2-1.4-3.6-1.4-1.5 0-2.8.5-3.7 1.3zm57.8 13.1c1-.8 1.6-2 1.6-3.2v-1.7c-.8.4-1.7.5-2.3.6-.9.1-1.7.3-2.6.4-1.4.2-2.4.5-3.1 1-.6.4-.9 1-.9 1.9 0 .6.3 1.2.9 1.6.6.4 1.4.7 2.4.7 1.6 0 3-.5 4-1.3zm-2.8-27.5h-2.7c-.1 0-.2-.1-.2-.2v-.1l1.3-4c0-.1.1-.1.2-.1s.2.1.2.2l1.3 4c.2 0 .1.1-.1.2zm-5.4 1.9c0 .1-.1.3-.1.4 0 .1-.1.3-.1.4 0 .2.1.4.2.6.1.1.4.2.6.2.2 0 .4 0 .6-.1.1-.1.2-.2.3-.4l.6-1.7c0-.1.1-.1.2-.1h3.7c.1 0 .2.1.2.2l.6 1.7c.1.2.2.3.3.4.1.1.3.1.5.1s.5-.1.6-.2c.1-.1.2-.3.2-.5 0-.1 0-.3-.1-.4 0-.2-.1-.3-.1-.4l-2.8-7.7c-.1-.3-.3-.5-.4-.6-.2-.1-.4-.1-.6-.1h-.5c-.2 0-.4 0-.6.1-.1.1-.3.2-.3.4l-3 7.7zm-6.1-7.1c0-.4.1-.7.3-.9.2-.2.5-.2.8-.2h4.8c.3 0 .6.1.7.2.1.1.2.3.2.5s-.1.4-.2.5c-.2.1-.4.2-.7.2H173c-.1 0-.2.1-.2.2v7.2c0 .3-.1.5-.3.7-.2.2-.4.3-.7.3s-.5-.1-.7-.3c-.2-.2-.3-.4-.3-.7V37zm-7.1.2h1.9c.6 0 1.1.1 1.5.4.4.3.5.7.5 1.2s-.2.9-.5 1.2c-.3.3-.8.5-1.3.5h-2.1c-.1 0-.2-.1-.2-.2v-2.9c0-.1.1-.2.2-.2zm-2.1 7.5c0 .3.1.5.3.7.2.2.4.3.7.3.3 0 .5-.1.7-.3.2-.2.3-.4.3-.7V42c0-.1.1-.2.2-.2h2.5c1 0 1.8-.3 2.4-.8.6-.5.9-1.3.9-2.2 0-1-.3-1.7-.8-2.2-.6-.5-1.5-.8-2.4-.8H163c-.4 0-.6.1-.8.2-.2.2-.3.5-.3.9v7.8zm-17.6 0c0 .3.1.5.3.7.2.2.4.3.7.3.3 0 .5-.1.7-.3.2-.2.3-.4.3-.7v-2.3c0-.1 0-.1.1-.2l1.3-1.3c.1-.1.2-.1.3 0l2.7 4.1c.1.2.3.3.4.4.1.1.3.1.5.1.3 0 .5-.1.7-.2.1-.1.2-.3.2-.7 0-.2-.2-.4-.3-.7-.9-1.5-1.9-2.9-2.9-4.4-.1-.1 0-.2 0-.3l2.4-2.5c.1-.1.2-.2.2-.3.1-.1.1-.2.1-.4s-.1-.4-.2-.5c-.2-.1-.4-.2-.7-.2-.2 0-.3 0-.4.1l-.3.3-3.6 4c-.1.1-.2.1-.3 0 0 0-.1-.1-.1-.2v-3.3c0-.3-.1-.5-.3-.7-.2-.2-.4-.3-.7-.3-.3 0-.5.1-.7.3s-.3.4-.3.7v8.5zm11.7.3l4.6-8c.3-.5.2-1-.4-1.3-.6-.3-.9 0-1.2.5l-1.9 3.6c-.1.1-.2.1-.3.1 0 0-.1 0-.1-.1l-2.1-3.6c-.3-.6-.9-.7-1.3-.4-.5.3-.6.8-.3 1.2l2.8 4.6v.1l-1.5 2.6c-.3.5-.2 1 .2 1.2.8.4 1.1.1 1.5-.5zm30.7-.3c0 .3.1.5.3.7.2.2.4.3.7.3s.5-.1.7-.3c.2-.2.3-.4.3-.7v-3.4c0-.1.1-.2.2-.2h4.2c.1 0 .2.1.2.2v3.4c0 .3.1.5.3.7.2.2.4.2.7.2.3 0 .5-.1.7-.3.2-.2.3-.4.3-.7v-8.1c0-.3-.1-.5-.3-.7-.2-.2-.4-.3-.7-.3s-.5.1-.7.3-.3.4-.3.7v2.9c0 .1-.1.2-.2.2h-4.2c-.1 0-.2-.1-.2-.2v-2.9c0-.3-.1-.5-.3-.7s-.4-.3-.7-.3-.5.1-.7.3c-.2.2-.3.4-.3.7v8.2zM225 19.5c-23.5-9.7-56-15.8-92-15.8s-68.5 6-92 15.8C18 29.1 3.7 42 3.7 56.2 3.7 70.4 18 83.4 41 92.9c23.5 9.7 56 15.8 92 15.8s68.5-6 92-15.8c23-9.5 37.2-22.5 37.2-36.7 0-14.2-14.2-27.1-37.2-36.7zM133 0c36.4 0 69.5 6.1 93.4 16.1C250.8 26.2 266 40.4 266 56.2s-15.1 30-39.6 40.1c-23.9 9.9-57 16.1-93.4 16.1-36.4 0-69.5-6.1-93.4-16.1C15.1 86.2 0 72 0 56.2s15.1-30 39.6-40.1C63.5 6.1 96.5 0 133 0zm94.9 46.4c-.2.1-.3.1-.4.1 0-2-.4-4.1-1.1-6.2-.8-2.6-2-5.1-3.8-6.9l-.3-.3-.3.3c-1.8 1.8-3 4.3-3.8 6.9-.7 2.1-1.1 4.2-1.1 6.2-.1 0-.3-.1-.4-.1-1.8-.8-5-1.3-6.1-1.1l11.6 19.4.1-.1.1.1L234 45.3c-1.1-.2-4.3.2-6.1 1.1zm-.8 29.6c4.6 0 7.8-1 9.9-3.2 5-5.2 3.5-15.4.9-22.8l-15.4 25.6L207.2 50c-2.6 7.4-4.1 17.6.9 22.8 2.1 2.2 5.5 3.2 10.1 3.2h8.9zm-35.4-24.7c2 1.3 3.2 3.2 3.2 5.8v11.7c0 1.7.3 2.6.5 3.3.1.5.3.9.3 1.4 0 .9-.4 1.7-1.1 2.3-.7.6-1.6.9-2.6.9-1.5 0-2.6-.5-3.3-1.2-.6-.6-1-1.4-1.2-2.2-1.2 1.1-2.5 1.9-3.8 2.5-1.7.7-3.4.9-5.3.9-2.2 0-4.4-.8-6-2.2-.8-.7-1.4-1.6-1.9-2.6v1c0 1-.4 1.8-1.1 2.4-.7.6-1.7.9-2.8.9-1.2 0-2.1-.3-2.8-.9-.7-.6-1.1-1.4-1.1-2.4v-7.6h-10.6v7.6c0 1-.4 1.8-1.1 2.4-.7.6-1.7.9-2.8.9-1.2 0-2.1-.3-2.8-.9-.7-.6-1.1-1.4-1.1-2.4V62.6c-.1.7-.3 1.1-.7 1.5-.6.6-1.5.8-2.8.8h-15.2c.1 1.5.7 2.8 1.6 3.7 1 1 2.5 1.6 4.3 1.6 2.8 0 4-1.1 5-2 .9-.8 1.6-1.5 3-1.5.9 0 1.8.4 2.4.9.7.6 1.1 1.5 1.1 2.3 0 2.1-1.4 3.6-3.3 4.7-2.4 1.4-5.7 2-8.2 2-4.5 0-7.8-1.4-10.1-3.5-1.8-1.7-2.9-3.8-3.5-6.1v5.7c0 1-.3 1.9-1 2.6-.6.6-1.5 1-2.7 1-1.2 0-2.1-.4-2.7-1-.7-.7-1-1.7-1-2.6v-7.4l-3 8.8c-.3.8-.8 1.4-1.4 1.8-.6.4-1.3.5-2.1.5s-1.5-.2-2.1-.5c-.6-.4-1.1-1-1.4-1.8l-3-8.8v7.4c0 1-.3 1.9-1 2.6-.6.6-1.5 1-2.7 1-1.2 0-2.1-.4-2.7-1-.7-.7-1-1.7-1-2.6v-9.5c-.1.3-.3.6-.6.9-.6.6-1.5.8-2.8.8H71.4c.1 1.5.7 2.8 1.6 3.7 1 1 2.5 1.6 4.3 1.6 2.8 0 4-1.1 5-2 .9-.8 1.6-1.5 3-1.5.9 0 1.8.4 2.4.9.7.6 1.1 1.5 1.1 2.3 0 2.1-1.4 3.6-3.3 4.7-2.4 1.4-5.7 2-8.2 2-4.5 0-7.8-1.4-10.1-3.5-1.8-1.7-2.9-3.8-3.4-6-.7 2.1-2.3 4.1-4.5 5.6-2.9 2.1-6.8 3.5-11.2 3.5-6.4 0-11.5-1.9-15-5.5-3.4-3.6-5.2-8.9-5.2-15.8 0-6 1.9-11.6 5.5-15.5 3.3-3.6 8.1-5.8 14.4-5.8 4.6 0 8.4 1.3 11.1 3 3.5 2.3 5.4 5.4 5.4 7.7 0 1.4-.4 2.4-1.1 3.2-.7.7-1.8 1.1-3.2 1.1-2.5 0-3.5-1.5-4.6-3.1-1.4-2-2.9-4.2-7.5-4.2-2.9 0-5.6 1.3-7.5 3.8-1.8 2.3-2.9 5.6-2.9 9.8 0 3.9.8 7.5 2.8 10.1 1.7 2.1 4.2 3.5 7.9 3.5 4 0 5.7-2.4 7.1-4.5 1.2-1.7 2.3-3.2 4.3-3.2 1.2 0 2.5.4 3.3 1.1.2.1.3.3.4.4.2-3.7 1.5-6.9 3.7-9.1 2.4-2.4 5.8-3.8 10-3.8 3.9 0 7.1 1.3 9.3 3.3 1.9 1.7 3.1 3.9 3.6 6.2V54c0-1.5.6-2.4 1.5-3 .8-.5 1.8-.7 2.8-.7h1.6c1.2 0 2 .2 2.8.8.7.5 1.2 1.3 1.5 2.4l3.8 11.5 3.7-11.5c.4-1.1.8-1.9 1.5-2.4.7-.6 1.6-.8 2.8-.8h1.6c1 0 2 .2 2.8.7.9.6 1.5 1.5 1.5 3v5.5c.6-2.5 1.7-4.6 3.3-6.3 2.4-2.4 5.8-3.8 10-3.8 3.9 0 7.1 1.3 9.3 3.3 2.1 1.9 3.4 4.5 3.8 7.1v-6.6c0-1 .4-1.8 1.1-2.4.7-.6 1.7-.9 2.8-.9 1.2 0 2.1.3 2.8.9.7.6 1.1 1.4 1.1 2.4v6.3h10.6v-6.3c0-1 .4-1.8 1.1-2.4.7-.6 1.7-.9 2.8-.9 1.2 0 2.1.3 2.8.9.7.6 1.1 1.4 1.1 2.4v12.5c.5-1.3 1.4-2.4 2.5-3.1 1.9-1.3 4.4-1.9 7.1-2.2l4.3-.5c.8-.1 1.4-.2 1.9-.5.4-.3.6-.7.6-1.5 0-.7-.4-1.3-.9-1.6-.7-.5-1.8-.7-2.9-.7-2.8 0-4 1.2-5 2.2-.9.9-1.7 1.6-3.1 1.6-1 0-1.8-.4-2.5-.9-.7-.6-1-1.4-1-2.3 0-1.7 1.3-3.6 3.7-5 1.9-1.1 4.6-1.9 7.9-1.9 3.6.1 6.6.7 8.7 2z" fill="#007d2f"/></svg>