<?xml version="1.0" encoding="utf-8"?>
<!-- Generator: Adobe Illustrator 22.0.1, SVG Export Plug-In . SVG Version: 6.00 Build 0)  -->
<svg version="1.1" id="Слой_1" xmlns="http://www.w3.org/2000/svg" xmlns:xlink="http://www.w3.org/1999/xlink" x="0px" y="0px"
	 viewBox="0 0 266 112.4" style="enable-background:new 0 0 266 112.4;" xml:space="preserve">
<style type="text/css">
	.st0{fill:#007D2F;}
</style>
<path class="st0" d="M73.4,56.6c-0.9,0.8-1.5,1.8-1.9,3.2h10.9c-0.3-1.2-0.9-2.3-1.7-3.1c-0.9-0.9-2.2-1.4-3.6-1.4
	C75.6,55.3,74.4,55.8,73.4,56.6z M127.4,56.6c-0.9,0.8-1.5,1.8-1.9,3.2h10.9c-0.3-1.2-0.9-2.3-1.7-3.1c-0.9-0.9-2.2-1.4-3.6-1.4
	C129.6,55.3,128.3,55.8,127.4,56.6z M185.2,69.7c1-0.8,1.6-2,1.6-3.2v-1.7c-0.8,0.4-1.7,0.5-2.3,0.6c-0.9,0.1-1.7,0.3-2.6,0.4
	c-1.4,0.2-2.4,0.5-3.1,1c-0.6,0.4-0.9,1-0.9,1.9c0,0.6,0.3,1.2,0.9,1.6c0.6,0.4,1.4,0.7,2.4,0.7C182.8,71,184.2,70.5,185.2,69.7z
	 M182.4,42.2h-2.7c-0.1,0-0.2-0.1-0.2-0.2c0,0,0-0.1,0-0.1l1.3-4c0-0.1,0.1-0.1,0.2-0.1h0c0.1,0,0.2,0.1,0.2,0.2l1.3,4
	C182.7,42,182.6,42.1,182.4,42.2L182.4,42.2z M177,44.1c0,0.1-0.1,0.3-0.1,0.4c0,0.1-0.1,0.3-0.1,0.4c0,0.2,0.1,0.4,0.2,0.6
	c0.1,0.1,0.4,0.2,0.6,0.2c0.2,0,0.4,0,0.6-0.1c0.1-0.1,0.2-0.2,0.3-0.4l0.6-1.7c0-0.1,0.1-0.1,0.2-0.1h3.7c0.1,0,0.2,0.1,0.2,0.2
	l0.6,1.7c0.1,0.2,0.2,0.3,0.3,0.4c0.1,0.1,0.3,0.1,0.5,0.1c0.2,0,0.5-0.1,0.6-0.2l0,0c0.1-0.1,0.2-0.3,0.2-0.5c0-0.1,0-0.3-0.1-0.4
	c0-0.2-0.1-0.3-0.1-0.4l-2.8-7.7c-0.1-0.3-0.3-0.5-0.4-0.6l0,0c-0.2-0.1-0.4-0.1-0.6-0.1h-0.5c-0.2,0-0.4,0-0.6,0.1
	c-0.1,0.1-0.3,0.2-0.3,0.4L177,44.1z M170.9,37c0-0.4,0.1-0.7,0.3-0.9c0.2-0.2,0.5-0.2,0.8-0.2h4.8c0.3,0,0.6,0.1,0.7,0.2
	c0.1,0.1,0.2,0.3,0.2,0.5c0,0.2-0.1,0.4-0.2,0.5c-0.2,0.1-0.4,0.2-0.7,0.2H173c-0.1,0-0.2,0.1-0.2,0.2v7.2c0,0.3-0.1,0.5-0.3,0.7
	c-0.2,0.2-0.4,0.3-0.7,0.3s-0.5-0.1-0.7-0.3c-0.2-0.2-0.3-0.4-0.3-0.7V37z M163.8,37.2h1.9c0.6,0,1.1,0.1,1.5,0.4
	c0.4,0.3,0.5,0.7,0.5,1.2c0,0.5-0.2,0.9-0.5,1.2c-0.3,0.3-0.8,0.5-1.3,0.5h-2.1c-0.1,0-0.2-0.1-0.2-0.2v-2.9
	C163.6,37.3,163.7,37.2,163.8,37.2z M161.7,44.7c0,0.3,0.1,0.5,0.3,0.7c0.2,0.2,0.4,0.3,0.7,0.3c0.3,0,0.5-0.1,0.7-0.3
	c0.2-0.2,0.3-0.4,0.3-0.7V42c0-0.1,0.1-0.2,0.2-0.2h2.5c1,0,1.8-0.3,2.4-0.8c0.6-0.5,0.9-1.3,0.9-2.2c0-1-0.3-1.7-0.8-2.2
	c-0.6-0.5-1.5-0.8-2.4-0.8h-3.5c-0.4,0-0.6,0.1-0.8,0.2l0,0c-0.2,0.2-0.3,0.5-0.3,0.9V44.7z M144.1,44.7c0,0.3,0.1,0.5,0.3,0.7
	c0.2,0.2,0.4,0.3,0.7,0.3c0.3,0,0.5-0.1,0.7-0.3c0.2-0.2,0.3-0.4,0.3-0.7v-2.3c0-0.1,0-0.1,0.1-0.2l1.3-1.3c0.1-0.1,0.2-0.1,0.3,0
	l2.7,4.1c0.1,0.2,0.3,0.3,0.4,0.4l0,0c0.1,0.1,0.3,0.1,0.5,0.1c0.3,0,0.5-0.1,0.7-0.2c0.1-0.1,0.2-0.3,0.2-0.7
	c0-0.2-0.2-0.4-0.3-0.7c-0.9-1.5-1.9-2.9-2.9-4.4c-0.1-0.1,0-0.2,0-0.3l2.4-2.5c0.1-0.1,0.2-0.2,0.2-0.3c0.1-0.1,0.1-0.2,0.1-0.4
	c0-0.2-0.1-0.4-0.2-0.5c-0.2-0.1-0.4-0.2-0.7-0.2c-0.2,0-0.3,0-0.4,0.1l0,0c-0.1,0.1-0.2,0.2-0.3,0.3l-3.6,4c-0.1,0.1-0.2,0.1-0.3,0
	c0,0-0.1-0.1-0.1-0.2v-3.3c0-0.3-0.1-0.5-0.3-0.7c-0.2-0.2-0.4-0.3-0.7-0.3c-0.3,0-0.5,0.1-0.7,0.3s-0.3,0.4-0.3,0.7V44.7z
	 M155.8,45l4.6-8c0.3-0.5,0.2-1-0.4-1.3c-0.6-0.3-0.9,0-1.2,0.5l-1.9,3.6c-0.1,0.1-0.2,0.1-0.3,0.1c0,0-0.1,0-0.1-0.1l-2.1-3.6
	c-0.3-0.6-0.9-0.7-1.3-0.4c-0.5,0.3-0.6,0.8-0.3,1.2l2.8,4.6c0,0,0,0.1,0,0.1l-1.5,2.6c-0.3,0.5-0.2,1,0.2,1.2
	C155.1,45.9,155.4,45.6,155.8,45z M186.5,44.7c0,0.3,0.1,0.5,0.3,0.7c0.2,0.2,0.4,0.3,0.7,0.3s0.5-0.1,0.7-0.3
	c0.2-0.2,0.3-0.4,0.3-0.7v-3.4c0-0.1,0.1-0.2,0.2-0.2h4.2c0.1,0,0.2,0.1,0.2,0.2v3.4c0,0.3,0.1,0.5,0.3,0.7l0,0
	c0.2,0.2,0.4,0.2,0.7,0.2c0.3,0,0.5-0.1,0.7-0.3c0.2-0.2,0.3-0.4,0.3-0.7v-8.1c0-0.3-0.1-0.5-0.3-0.7c-0.2-0.2-0.4-0.3-0.7-0.3
	s-0.5,0.1-0.7,0.3s-0.3,0.4-0.3,0.7v2.9c0,0.1-0.1,0.2-0.2,0.2h-4.2c-0.1,0-0.2-0.1-0.2-0.2v-2.9c0-0.3-0.1-0.5-0.3-0.7
	s-0.4-0.3-0.7-0.3s-0.5,0.1-0.7,0.3c-0.2,0.2-0.3,0.4-0.3,0.7V44.7z M225,19.5c-23.5-9.7-56-15.8-92-15.8c-36,0-68.5,6-92,15.8
	C18,29.1,3.7,42,3.7,56.2C3.7,70.4,18,83.4,41,92.9c23.5,9.7,56,15.8,92,15.8c36,0,68.5-6,92-15.8c23-9.5,37.2-22.5,37.2-36.7
	C262.2,42,248,29.1,225,19.5z M133,0c36.4,0,69.5,6.1,93.4,16.1C250.8,26.2,266,40.4,266,56.2s-15.1,30-39.6,40.1
	c-23.9,9.9-57,16.1-93.4,16.1c-36.4,0-69.5-6.1-93.4-16.1C15.1,86.2,0,72,0,56.2s15.1-30,39.6-40.1C63.5,6.1,96.5,0,133,0z
	 M227.9,46.4c-0.2,0.1-0.3,0.1-0.4,0.1c0-2-0.4-4.1-1.1-6.2c-0.8-2.6-2-5.1-3.8-6.9c-0.1-0.1-0.2-0.2-0.3-0.3l0,0l0,0
	c-0.1,0.1-0.2,0.2-0.3,0.3c-1.8,1.8-3,4.3-3.8,6.9c-0.7,2.1-1.1,4.2-1.1,6.2c-0.1,0-0.3-0.1-0.4-0.1c-1.8-0.8-5-1.3-6.1-1.1
	l11.6,19.4l0.1-0.1l0.1,0.1L234,45.3C232.9,45.1,229.7,45.5,227.9,46.4z M227.1,76c4.6,0,7.8-1,9.9-3.2c5-5.2,3.5-15.4,0.9-22.8
	l-15.4,25.6L207.2,50c-2.6,7.4-4.1,17.6,0.9,22.8c2.1,2.2,5.5,3.2,10.1,3.2L227.1,76z M191.7,51.3c2,1.3,3.2,3.2,3.2,5.8v11.7
	c0,1.7,0.3,2.6,0.5,3.3c0.1,0.5,0.3,0.9,0.3,1.4c0,0.9-0.4,1.7-1.1,2.3c-0.7,0.6-1.6,0.9-2.6,0.9c-1.5,0-2.6-0.5-3.3-1.2
	c-0.6-0.6-1-1.4-1.2-2.2c-1.2,1.1-2.5,1.9-3.8,2.5c-1.7,0.7-3.4,0.9-5.3,0.9c-2.2,0-4.4-0.8-6-2.2l0,0c-0.8-0.7-1.4-1.6-1.9-2.6v1
	c0,1-0.4,1.8-1.1,2.4c-0.7,0.6-1.7,0.9-2.8,0.9c-1.2,0-2.1-0.3-2.8-0.9c-0.7-0.6-1.1-1.4-1.1-2.4v-7.6h-10.6v7.6
	c0,1-0.4,1.8-1.1,2.4c-0.7,0.6-1.7,0.9-2.8,0.9c-1.2,0-2.1-0.3-2.8-0.9c-0.7-0.6-1.1-1.4-1.1-2.4V62.6c-0.1,0.7-0.3,1.1-0.7,1.5
	c-0.6,0.6-1.5,0.8-2.8,0.8h-15.2c0.1,1.5,0.7,2.8,1.6,3.7c1,1,2.5,1.6,4.3,1.6c2.8,0,4-1.1,5-2c0.9-0.8,1.6-1.5,3-1.5
	c0.9,0,1.8,0.4,2.4,0.9c0.7,0.6,1.1,1.5,1.1,2.3c0,2.1-1.4,3.6-3.3,4.7c-2.4,1.4-5.7,2-8.2,2c-4.5,0-7.8-1.4-10.1-3.5
	c-1.8-1.7-2.9-3.8-3.5-6.1v5.7c0,1-0.3,1.9-1,2.6c-0.6,0.6-1.5,1-2.7,1c-1.2,0-2.1-0.4-2.7-1c-0.7-0.7-1-1.7-1-2.6v-7.4l-3,8.8
	c-0.3,0.8-0.8,1.4-1.4,1.8c-0.6,0.4-1.3,0.5-2.1,0.5c-0.8,0-1.5-0.2-2.1-0.5c-0.6-0.4-1.1-1-1.4-1.8l-3-8.8v7.4c0,1-0.3,1.9-1,2.6
	c-0.6,0.6-1.5,1-2.7,1c-1.2,0-2.1-0.4-2.7-1c-0.7-0.7-1-1.7-1-2.6v-9.5c-0.1,0.3-0.3,0.6-0.6,0.9c-0.6,0.6-1.5,0.8-2.8,0.8H71.4
	c0.1,1.5,0.7,2.8,1.6,3.7c1,1,2.5,1.6,4.3,1.6c2.8,0,4-1.1,5-2c0.9-0.8,1.6-1.5,3-1.5c0.9,0,1.8,0.4,2.4,0.9
	c0.7,0.6,1.1,1.5,1.1,2.3c0,2.1-1.4,3.6-3.3,4.7c-2.4,1.4-5.7,2-8.2,2c-4.5,0-7.8-1.4-10.1-3.5c-1.8-1.7-2.9-3.8-3.4-6
	c-0.7,2.1-2.3,4.1-4.5,5.6c-2.9,2.1-6.8,3.5-11.2,3.5c-6.4,0-11.5-1.9-15-5.5c-3.4-3.6-5.2-8.9-5.2-15.8c0-6,1.9-11.6,5.5-15.5
	c3.3-3.6,8.1-5.8,14.4-5.8c4.6,0,8.4,1.3,11.1,3c3.5,2.3,5.4,5.4,5.4,7.7c0,1.4-0.4,2.4-1.1,3.2l0,0c-0.7,0.7-1.8,1.1-3.2,1.1
	c-2.5,0-3.5-1.5-4.6-3.1c-1.4-2-2.9-4.2-7.5-4.2c-2.9,0-5.6,1.3-7.5,3.8c-1.8,2.3-2.9,5.6-2.9,9.8c0,3.9,0.8,7.5,2.8,10.1
	c1.7,2.1,4.2,3.5,7.9,3.5c4,0,5.7-2.4,7.1-4.5c1.2-1.7,2.3-3.2,4.3-3.2c1.2,0,2.5,0.4,3.3,1.1c0.2,0.1,0.3,0.3,0.4,0.4
	c0.2-3.7,1.5-6.9,3.7-9.1c2.4-2.4,5.8-3.8,10-3.8c3.9,0,7.1,1.3,9.3,3.3c1.9,1.7,3.1,3.9,3.6,6.2V54c0-1.5,0.6-2.4,1.5-3
	c0.8-0.5,1.8-0.7,2.8-0.7h1.6c1.2,0,2,0.2,2.8,0.8c0.7,0.5,1.2,1.3,1.5,2.4l3.8,11.5l3.7-11.5c0.4-1.1,0.8-1.9,1.5-2.4
	c0.7-0.6,1.6-0.8,2.8-0.8h1.6c1,0,2,0.2,2.8,0.7c0.9,0.6,1.5,1.5,1.5,3v5.5c0.6-2.5,1.7-4.6,3.3-6.3c2.4-2.4,5.8-3.8,10-3.8
	c3.9,0,7.1,1.3,9.3,3.3c2.1,1.9,3.4,4.5,3.8,7.1v-6.6c0-1,0.4-1.8,1.1-2.4c0.7-0.6,1.7-0.9,2.8-0.9c1.2,0,2.1,0.3,2.8,0.9
	c0.7,0.6,1.1,1.4,1.1,2.4v6.3h10.6v-6.3c0-1,0.4-1.8,1.1-2.4c0.7-0.6,1.7-0.9,2.8-0.9c1.2,0,2.1,0.3,2.8,0.9
	c0.7,0.6,1.1,1.4,1.1,2.4v12.5c0.5-1.3,1.4-2.4,2.5-3.1c1.9-1.3,4.4-1.9,7.1-2.2l4.3-0.5c0.8-0.1,1.4-0.2,1.9-0.5
	c0.4-0.3,0.6-0.7,0.6-1.5c0-0.7-0.4-1.3-0.9-1.6c-0.7-0.5-1.8-0.7-2.9-0.7c-2.8,0-4,1.2-5,2.2c-0.9,0.9-1.7,1.6-3.1,1.6
	c-1,0-1.8-0.4-2.5-0.9c-0.7-0.6-1-1.4-1-2.3c0-1.7,1.3-3.6,3.7-5c1.9-1.1,4.6-1.9,7.9-1.9C186.6,49.4,189.6,50,191.7,51.3z"/>
</svg>
