<?xml version="1.0" encoding="utf-8"?><svg viewBox="0 0 229 127" xmlns="http://www.w3.org/2000/svg" xmlns:xlink="http://www.w3.org/1999/xlink"><style>:root>svg{display:none}:root>svg:target{display:block}</style><svg viewBox="0 0 8 5" id="arrow-down" xmlns="http://www.w3.org/2000/svg"><path fill="#1b1b1b" d="M7.998.797L4.749 4.209l-.748.786-.748-.786L.005.797.752.01l3.249 3.412L7.25.011z"/></svg><svg viewBox="0 0 229 127" id="company-img-line" xmlns="http://www.w3.org/2000/svg"><defs><clipPath id="ba"><path fill="#fff" d="M228 126.47C169.037 60.816 116.696 14.012.125 1"/></clipPath></defs><path fill="none" stroke="#eeac40" stroke-miterlimit="20" stroke-width="2" d="M228 126.47C169.037 60.816 116.696 14.012.125 1" clip-path="url(#ba)"/></svg><svg version="1.1" id="elevator" x="0" y="0" viewBox="0 0 126 126" xml:space="preserve" xmlns="http://www.w3.org/2000/svg"><style>.cst0{opacity:.1;fill:#007d2f}.cst1{fill:none;stroke:#007d2f;stroke-width:1.2;stroke-miterlimit:10}</style><path transform="rotate(90 47.002 62.248)" class="cst0" d="M37.869 56.294h18.268v11.909H37.869z"/><path transform="rotate(90 62.91 62.248)" class="cst0" d="M53.777 56.294h18.268v11.909H53.777z"/><path transform="rotate(90 78.82 62.248)" class="cst0" d="M69.685 56.294h18.268v11.909H69.685z"/><path class="cst1" d="M55.016 73.382V51.047a7.984 7.984 0 00-15.968 0v22.335M39.048 73.382v9.555M37.331 82.669h3.552M47.002 73.382v9.555M45.286 82.669h3.552M62.911 73.382v9.555M61.194 82.669h3.552M78.819 73.382v9.555M77.102 82.669h3.553M54.957 73.382v9.555M53.24 82.669h3.552M39.048 73.382h15.968M39.048 51.114h15.968"/><path class="cst1" d="M70.924 73.382V51.047a7.984 7.984 0 00-15.968 0v22.335M70.865 73.382v9.555M69.148 82.669H72.7M54.957 73.382h15.967M54.957 51.114h15.967"/><path class="cst1" d="M86.833 73.382V51.047a7.984 7.984 0 10-15.968 0v22.335M86.833 73.382v9.555M85.117 82.669h3.552M70.865 73.382h15.968M70.865 51.114h15.968"/></svg><svg version="1.1" id="elevator_white" x="0" y="0" viewBox="0 0 126 126" xml:space="preserve" xmlns="http://www.w3.org/2000/svg"><style>.dst0{fill:none;stroke:#fff;stroke-width:1.2;stroke-miterlimit:10}</style><path class="dst0" d="M55.016 73.382V51.047a7.984 7.984 0 00-15.968 0v22.335M39.048 73.382v9.555M37.331 82.669h3.552M47.002 73.382v9.555M45.286 82.669h3.552M62.911 73.382v9.555M61.194 82.669h3.552M78.819 73.382v9.555M77.102 82.669h3.553M54.957 73.382v9.555M53.24 82.669h3.552M39.048 73.382h15.968M39.048 51.114h15.968"/><path class="dst0" d="M70.924 73.382V51.047a7.984 7.984 0 00-15.968 0v22.335M70.865 73.382v9.555M69.148 82.669H72.7M54.957 73.382h15.967M54.957 51.114h15.967"/><path class="dst0" d="M86.833 73.382V51.047a7.984 7.984 0 10-15.968 0v22.335M86.833 73.382v9.555M85.117 82.669h3.552M70.865 73.382h15.968M70.865 51.114h15.968"/></svg><svg viewBox="0 0 8 15" id="fb" xmlns="http://www.w3.org/2000/svg"><path fill="#fff" d="M2.252 3.261v1.905H.856v2.33h1.396v6.925H5.12V7.497h1.924s.18-1.118.268-2.339H5.13V3.564c0-.237.312-.558.621-.558h1.563V.58H5.19c-3.009 0-2.938 2.333-2.938 2.681z"/></svg><svg viewBox="0 0 14 10" id="icon-check" xmlns="http://www.w3.org/2000/svg"><path fill="#fff" d="M.722 4.5l1.414-1.414L5.5 6.45 11.864.086 13.278 1.5 6.914 7.864 5.5 9.278 4.086 7.864z"/></svg><svg viewBox="0 0 29 29" id="icon-zoom" xmlns="http://www.w3.org/2000/svg"><defs><clipPath id="ga"><path fill="#fff" d="M12 0c6.627 0 12 5.372 12 12 0 6.627-5.373 12-12 12S0 18.627 0 12C0 5.372 5.373 0 12 0z"/></clipPath><clipPath id="gb"><path fill="#fff" d="M19.368 19.368a.5.5 0 01.707 0l8.557 8.556a.5.5 0 01-.708.707l-8.556-8.556a.5.5 0 010-.707z"/></clipPath></defs><path fill="none" stroke="#fff" stroke-miterlimit="20" stroke-width="2" d="M12 0c6.627 0 12 5.372 12 12 0 6.627-5.373 12-12 12S0 18.627 0 12C0 5.372 5.373 0 12 0z" clip-path="url(#ga)"/><path fill="none" stroke="#fff" stroke-miterlimit="20" stroke-width="2" d="M19.368 19.368a.5.5 0 01.707 0l8.557 8.556a.5.5 0 01-.708.707l-8.556-8.556a.5.5 0 010-.707z" clip-path="url(#gb)"/></svg><svg viewBox="0 0 12 12" id="inst" xmlns="http://www.w3.org/2000/svg"><path fill="#fff" d="M2.975-.062h6.06c1.525 0 3.029 1.472 3.029 3.029v6.059c0 1.557-1.504 3.03-3.03 3.03H2.975c-1.557 0-3.03-1.506-3.03-3.03v-6.06c0-1.556 1.536-3.028 3.03-3.028zM3 6.03a3.031 3.031 0 106.062 0A3.031 3.031 0 003 6.03zm5.531-3.56c0 .552.455 1 1.016 1 .56 0 1.015-.448 1.015-1 0-.553-.454-1-1.015-1-.561 0-1.016.447-1.016 1z"/></svg><svg version="1.1" id="maslo" x="0" y="0" viewBox="0 0 88 88" xml:space="preserve" xmlns="http://www.w3.org/2000/svg"><style>.ist0{opacity:.1;fill:#007d2f}.ist1{fill:none;stroke:#007d2f;stroke-width:1.2;stroke-miterlimit:10}.ist2{fill:#007d2f}</style><path class="ist0" d="M43.93 41.85c-2.853 0-5.174-2.32-5.174-5.173s2.32-5.173 5.173-5.173 5.174 2.32 5.174 5.173-2.321 5.173-5.174 5.173z"/><path class="ist1" d="M41.502 23.372c.606-2.442 2.494-4.24 2.494-4.24s2.3 2.188 2.637 5.005M32.833 29.014c-1.288-2.15-1.22-4.75-1.22-4.75s3.168-.075 5.4 1.678M30.713 39.15c-2.435-.607-4.233-2.495-4.233-2.495s2.188-2.307 5.005-2.637M36.37 47.81c-2.15 1.297-4.758 1.23-4.758 1.23s-.082-3.17 1.678-5.402M46.498 49.946c-.614 2.427-2.502 4.225-2.502 4.225s-2.3-2.187-2.63-5.004M55.152 44.282c1.296 2.15 1.236 4.757 1.236 4.757s-3.17.083-5.402-1.67M57.287 34.153c2.435.614 4.233 2.502 4.233 2.502s-2.188 2.3-5.012 2.63M51.638 25.493c2.15-1.289 4.75-1.229 4.75-1.229s.075 3.154-1.671 5.394v.008"/><path class="ist1" d="M42.81 29.497c.3-1.21.12-3-.6-4.84-.18-.47-.42-.89-.71-1.28-1.43-2.06-3.85-3.05-3.85-3.05s-1.35 2.87-.64 5.62c.06.21.12.43.21.65.71 1.82 1.76 3.26 2.8 3.95M38.06 32.397c-.65-1.06-2.04-2.17-3.81-2.96-.46-.21-.94-.34-1.42-.42-2.47-.43-4.87.57-4.87.57s1.08 2.99 3.53 4.43c.19.12.39.23.6.32 1.77.77 3.52 1.05 4.74.82M37.88 40.657c-.7 1.02-2.13 2.08-3.94 2.78-.21.08-.43.15-.65.2-2.75.71-5.62-.64-5.62-.64s.99-2.42 3.04-3.85c.39-.28.82-.52 1.29-.7 1.81-.71 3.57-.9 4.78-.61.15 1.03.54 1.99 1.1 2.82zM42.5 43.767v.01c.24 1.22-.02 2.99-.82 4.78-.09.21-.19.42-.31.61-1.45 2.45-4.43 3.52-4.43 3.52s-1-2.4-.57-4.88c.08-.47.21-.94.41-1.4.79-1.79 1.91-3.18 2.96-3.83M47.91 42.727c.02 0 .04.02.06.03 1.04.69 2.1 2.12 2.81 3.95.09.22.16.44.21.66.71 2.75-.65 5.61-.65 5.61s-2.4-.99-3.84-3.03c-.29-.39-.53-.82-.71-1.3-.72-1.84-.9-3.64-.59-4.85M60.03 43.717s-2.41 1-4.88.57c-.47-.08-.94-.21-1.4-.42-1.84-.81-3.25-1.97-3.88-3.05.56-.78.95-1.67 1.15-2.64.03-.01.06-.01.1-.02 1.23-.24 3 .02 4.79.81.21.09.4.2.6.32 2.45 1.44 3.52 4.43 3.52 4.43zM51.08 35.437c1.21.34 3.05.16 4.92-.57.46-.18.9-.42 1.29-.71 2.05-1.43 3.04-3.85 3.04-3.85s-2.86-1.35-5.61-.65v.01c-.22.04-.44.12-.66.2-1.83.71-3.28 1.78-3.96 2.81-.02.03-.04.05-.05.08M45.51 29.577c0-.02-.01-.03-.01-.05-.24-1.22.03-2.99.82-4.78.09-.21.19-.42.31-.61 1.44-2.44 4.43-3.51 4.43-3.51s1.01 2.4.58 4.87c-.08.47-.22.94-.42 1.4-.81 1.83-1.96 3.25-3.04 3.88"/><path class="ist1" d="M49.87 40.817a6.99 6.99 0 01-1.96 1.91c-.81.53-1.72.9-2.71 1.07-.41.08-.84.12-1.27.12-.49 0-.97-.05-1.43-.14v-.01a6.967 6.967 0 01-2.76-1.19 6.938 6.938 0 01-1.86-1.92c-.56-.83-.95-1.79-1.1-2.82-.08-.38-.11-.78-.11-1.18 0-.51.05-1.02.16-1.5.21-1.02.63-1.95 1.23-2.76a6.91 6.91 0 011.96-1.85c.83-.54 1.77-.91 2.79-1.05.36-.07.74-.1 1.12-.1.54 0 1.07.06 1.58.18.98.21 1.89.63 2.67 1.2.74.53 1.38 1.2 1.87 1.98.51.8.87 1.71 1.03 2.68.07.39.11.8.11 1.22 0 .52-.06 1.03-.17 1.52M43.996 54.171v14.697"/><circle class="ist2" cx="43.964" cy="32.439" r=".803"/><circle class="ist2" cx="40.968" cy="33.681" r=".803"/><circle class="ist2" cx="39.727" cy="36.677" r=".803"/><circle class="ist2" cx="40.968" cy="39.673" r=".803"/><circle class="ist2" cx="43.964" cy="40.914" r=".803"/><circle class="ist2" cx="46.961" cy="39.673" r=".803"/><circle class="ist2" cx="48.202" cy="36.677" r=".803"/><circle class="ist2" cx="46.961" cy="33.681" r=".803"/><circle class="ist2" cx="43.964" cy="36.677" r=".803"/><path class="ist1" d="M48.425 58.865c-1.842 1.081-2.036 3.204-.954 5.046 1.082 1.841 3.03 2.705 4.872 1.623s4.388-7.064 4.388-7.064-6.464-.687-8.306.395zM47.471 63.911l-3.364 1.976M39.737 56.097c1.842 1.082 2.036 3.205.955 5.046-1.082 1.842-3.031 2.705-4.873 1.623-1.842-1.081-4.388-7.063-4.388-7.063s6.465-.688 8.306.394zM40.692 61.143l3.364 1.977"/></svg><svg version="1.1" id="maslo_white" x="0" y="0" viewBox="0 0 88 88" xml:space="preserve" xmlns="http://www.w3.org/2000/svg"><style>.jst0{fill:none;stroke:#fff;stroke-width:1.2;stroke-miterlimit:10}.jst1{fill:#fff}</style><path class="jst0" d="M41.502 23.372c.606-2.442 2.494-4.24 2.494-4.24s2.3 2.188 2.637 5.005M32.833 29.014c-1.288-2.15-1.22-4.75-1.22-4.75s3.168-.075 5.4 1.678M30.713 39.15c-2.435-.607-4.233-2.495-4.233-2.495s2.188-2.307 5.005-2.637M36.37 47.81c-2.15 1.297-4.758 1.23-4.758 1.23s-.082-3.17 1.678-5.402M46.498 49.946c-.614 2.427-2.502 4.225-2.502 4.225s-2.3-2.187-2.63-5.004M55.152 44.282c1.296 2.15 1.236 4.757 1.236 4.757s-3.17.083-5.402-1.67M57.287 34.153c2.435.614 4.233 2.502 4.233 2.502s-2.188 2.3-5.012 2.63M51.638 25.493c2.15-1.289 4.75-1.229 4.75-1.229s.075 3.154-1.671 5.394v.008"/><path class="jst0" d="M42.81 29.497c.3-1.21.12-3-.6-4.84-.18-.47-.42-.89-.71-1.28-1.43-2.06-3.85-3.05-3.85-3.05s-1.35 2.87-.64 5.62c.06.21.12.43.21.65.71 1.82 1.76 3.26 2.8 3.95M38.06 32.397c-.65-1.06-2.04-2.17-3.81-2.96-.46-.21-.94-.34-1.42-.42-2.47-.43-4.87.57-4.87.57s1.08 2.99 3.53 4.43c.19.12.39.23.6.32 1.77.77 3.52 1.05 4.74.82M37.88 40.657c-.7 1.02-2.13 2.08-3.94 2.78-.21.08-.43.15-.65.2-2.75.71-5.62-.64-5.62-.64s.99-2.42 3.04-3.85c.39-.28.82-.52 1.29-.7 1.81-.71 3.57-.9 4.78-.61.15 1.03.54 1.99 1.1 2.82zM42.5 43.767v.01c.24 1.22-.02 2.99-.82 4.78-.09.21-.19.42-.31.61-1.45 2.45-4.43 3.52-4.43 3.52s-1-2.4-.57-4.88c.08-.47.21-.94.41-1.4.79-1.79 1.91-3.18 2.96-3.83M47.91 42.727c.02 0 .04.02.06.03 1.04.69 2.1 2.12 2.81 3.95.09.22.16.44.21.66.71 2.75-.65 5.61-.65 5.61s-2.4-.99-3.84-3.03c-.29-.39-.53-.82-.71-1.3-.72-1.84-.9-3.64-.59-4.85M60.03 43.717s-2.41 1-4.88.57c-.47-.08-.94-.21-1.4-.42-1.84-.81-3.25-1.97-3.88-3.05.56-.78.95-1.67 1.15-2.64.03-.01.06-.01.1-.02 1.23-.24 3 .02 4.79.81.21.09.4.2.6.32 2.45 1.44 3.52 4.43 3.52 4.43zM51.08 35.437c1.21.34 3.05.16 4.92-.57.46-.18.9-.42 1.29-.71 2.05-1.43 3.04-3.85 3.04-3.85s-2.86-1.35-5.61-.65v.01c-.22.04-.44.12-.66.2-1.83.71-3.28 1.78-3.96 2.81-.02.03-.04.05-.05.08M45.51 29.577c0-.02-.01-.03-.01-.05-.24-1.22.03-2.99.82-4.78.09-.21.19-.42.31-.61 1.44-2.44 4.43-3.51 4.43-3.51s1.01 2.4.58 4.87c-.08.47-.22.94-.42 1.4-.81 1.83-1.96 3.25-3.04 3.88"/><path class="jst0" d="M49.87 40.817a6.99 6.99 0 01-1.96 1.91c-.81.53-1.72.9-2.71 1.07-.41.08-.84.12-1.27.12-.49 0-.97-.05-1.43-.14v-.01a6.967 6.967 0 01-2.76-1.19 6.938 6.938 0 01-1.86-1.92c-.56-.83-.95-1.79-1.1-2.82-.08-.38-.11-.78-.11-1.18 0-.51.05-1.02.16-1.5.21-1.02.63-1.95 1.23-2.76a6.91 6.91 0 011.96-1.85c.83-.54 1.77-.91 2.79-1.05.36-.07.74-.1 1.12-.1.54 0 1.07.06 1.58.18.98.21 1.89.63 2.67 1.2.74.53 1.38 1.2 1.87 1.98.51.8.87 1.71 1.03 2.68.07.39.11.8.11 1.22 0 .52-.06 1.03-.17 1.52M43.996 54.171v14.697"/><circle class="jst1" cx="43.964" cy="32.439" r=".803"/><circle class="jst1" cx="40.968" cy="33.681" r=".803"/><circle class="jst1" cx="39.727" cy="36.677" r=".803"/><circle class="jst1" cx="40.968" cy="39.673" r=".803"/><circle class="jst1" cx="43.964" cy="40.914" r=".803"/><circle class="jst1" cx="46.961" cy="39.673" r=".803"/><circle class="jst1" cx="48.202" cy="36.677" r=".803"/><circle class="jst1" cx="46.961" cy="33.681" r=".803"/><circle class="jst1" cx="43.964" cy="36.677" r=".803"/><path class="jst0" d="M48.425 58.865c-1.842 1.081-2.036 3.204-.954 5.046 1.082 1.841 3.03 2.705 4.872 1.623s4.388-7.064 4.388-7.064-6.464-.687-8.306.395zM47.471 63.911l-3.364 1.976M39.737 56.097c1.842 1.082 2.036 3.205.955 5.046-1.082 1.842-3.031 2.705-4.873 1.623-1.842-1.081-4.388-7.063-4.388-7.063s6.465-.688 8.306.394zM40.692 61.143l3.364 1.977"/></svg><svg version="1.1" id="nauka" x="0" y="0" viewBox="0 0 51.335 66.229" xml:space="preserve" xmlns="http://www.w3.org/2000/svg"><style>.kst0{opacity:.1;fill:#007d2f}.kst1{fill:none;stroke:#007d2f;stroke-miterlimit:10}</style><path class="kst0" d="M31.264 21.484c-.662 0-1.292-.067-1.831-.154.409-1.522 1.23-3.468 2.692-4.415.83-.538 1.935-.81 3.281-.81.667 0 1.303.068 1.845.156-.41 1.52-1.23 3.46-2.691 4.408-.834.54-1.943.815-3.296.815z"/><path class="kst1" d="M32.317 34.591v19.722a6.525 6.525 0 11-13.05 0V34.591"/><path class="kst1" d="M16.525 34.591v-6.45H35.06v6.45h-2.743v19.722a6.525 6.525 0 11-13.05 0V34.591h-2.742zM12.449 17.802c3.856 4.481 11.611 4.13 11.611 4.13s1.505-7.616-2.35-12.097-11.612-4.131-11.612-4.131-1.504 7.616 2.351 12.098z"/><path class="kst1" d="M12.449 17.802c3.856 4.481 11.611 4.13 11.611 4.13s1.505-7.616-2.35-12.097-11.612-4.131-11.612-4.131-1.504 7.616 2.351 12.098z"/><path class="kst0" d="M18.822 19.147c-2.043-.654-3.608-1.603-4.653-2.82-2.049-2.38-2.38-6.03-2.313-8.582 1.047.13 2.269.359 3.498.752 2.037.652 3.6 1.597 4.641 2.807 1.95 2.272 2.367 5.878 2.31 8.593a19.572 19.572 0 01-3.483-.75z"/><path class="kst1" d="M35.647 22.348c-3.44 2.23-8.531.484-8.531.484s.484-5.36 3.923-7.59 8.53-.485 8.53-.485-.483 5.36-3.922 7.59zM25.225 25.517c2.27-3.78 5.99-7.08 10.25-8.43"/><path class="kst1" d="M35.647 22.348c-3.44 2.23-8.531.484-8.531.484s.484-5.36 3.923-7.59 8.53-.485 8.53-.485-.483 5.36-3.922 7.59z"/><path class="kst0" d="M25.791 58.84a4.494 4.494 0 01-3.196-1.324 4.503 4.503 0 01-1.324-3.205V32.59h-2.75v-2.45h14.54v2.45h-2.74v21.72a4.535 4.535 0 01-4.53 4.53z"/><path class="kst1" d="M15.757 11.21s10.05 7.95 10.04 18.85v15.122"/></svg><svg version="1.1" id="nauka_white" x="0" y="0" viewBox="0 0 51.335 66.229" xml:space="preserve" xmlns="http://www.w3.org/2000/svg"><style>.lst0{fill:none;stroke:#fff;stroke-miterlimit:10}</style><path class="lst0" d="M32.317 34.591v19.722a6.525 6.525 0 11-13.05 0V34.591"/><path class="lst0" d="M16.525 34.591v-6.45H35.06v6.45h-2.743v19.722a6.525 6.525 0 11-13.05 0V34.591h-2.742zM12.449 17.802c3.856 4.481 11.611 4.13 11.611 4.13s1.505-7.616-2.35-12.097-11.612-4.131-11.612-4.131-1.504 7.616 2.351 12.098z"/><path class="lst0" d="M12.449 17.802c3.856 4.481 11.611 4.13 11.611 4.13s1.505-7.616-2.35-12.097-11.612-4.131-11.612-4.131-1.504 7.616 2.351 12.098zM35.647 22.348c-3.44 2.23-8.531.484-8.531.484s.484-5.36 3.923-7.59 8.53-.485 8.53-.485-.483 5.36-3.922 7.59zM25.225 25.517c2.27-3.78 5.99-7.08 10.25-8.43"/><path class="lst0" d="M35.647 22.348c-3.44 2.23-8.531.484-8.531.484s.484-5.36 3.923-7.59 8.53-.485 8.53-.485-.483 5.36-3.922 7.59zM15.757 11.21s10.05 7.95 10.04 18.85v15.122"/></svg><svg version="1.1" id="semena" x="0" y="0" viewBox="0 0 79.333 79.333" xml:space="preserve" xmlns="http://www.w3.org/2000/svg"><style>.mst0{fill:#007d2f}.mst0,.mst1{opacity:.1}.mst2{fill:#007d2f}.mst3{fill:none;stroke:#007d2f;stroke-width:1.2;stroke-miterlimit:10}</style><path class="mst0" d="M37.571 58.216a.235.235 0 01-.126-.04l-11.023-6.72a4.165 4.165 0 00-2.165-.605c-.361 0-.723.047-1.074.14l-5.4 1.545-2.375-8.61 4.778-1.356 7.696-2.118.186-.038.046-.021a4.476 4.476 0 012.182.066c.353.095.66.218.964.38l14.86 8.14c1.668.905 1.376 2.985 1.376 2.985l14.727-4.06c.147-.041.303-.062.457-.062a1.692 1.692 0 011.702 1.713c0 .76-.513 1.43-1.247 1.63l-10.953 3.01L37.6 58.218l-.03-.001z"/><g class="mst1"><path class="mst2" d="M58.212 35.535c-.5 1.1-1.32 2.36-2.45 2.89-.48.23-1.08.35-1.75.35-.73 0-1.44-.13-2.04-.29.5-1.11 1.31-2.37 2.45-2.9.48-.23 1.07-.34 1.74-.34.73 0 1.44.13 2.05.29z"/><path class="mst2" d="M58.212 35.535c-.5 1.1-1.32 2.36-2.45 2.89-.48.23-1.08.35-1.75.35-.73 0-1.44-.13-2.04-.29.5-1.11 1.31-2.37 2.45-2.9.48-.23 1.07-.34 1.74-.34.73 0 1.44.13 2.05.29zM45.192 33.005c-1.13-.45-2.42-1.2-3.02-2.3-.58-1.11-.48-2.6-.23-3.79 1.12.46 2.42 1.2 3.01 2.31.59 1.1.49 2.6.24 3.78z"/><path class="mst2" d="M45.192 33.005c-1.13-.45-2.42-1.2-3.02-2.3-.58-1.11-.48-2.6-.23-3.79 1.12.46 2.42 1.2 3.01 2.31.59 1.1.49 2.6.24 3.78zM55.452 25.285c-.64 1.08-1.98 1.77-3.12 2.16-.19-1.2-.21-2.69.43-3.76.64-1.08 1.97-1.77 3.12-2.16.19 1.2.22 2.69-.43 3.76z"/><path class="mst2" d="M55.452 25.285c-.64 1.08-1.98 1.77-3.12 2.16-.19-1.2-.21-2.69.43-3.76.64-1.08 1.97-1.77 3.12-2.16.19 1.2.22 2.69-.43 3.76z"/></g><path class="mst3" d="M57.168 26.317c-1.774 2.964-6.276 3.535-6.276 3.535s-1.625-4.237.15-7.202c1.774-2.964 6.275-3.534 6.275-3.534s1.625 4.236-.15 7.2zM56.618 40.233c-3.124 1.477-7.182-.553-7.182-.553s1.007-4.425 4.13-5.901c3.124-1.477 7.182.553 7.182.553s-1.006 4.425-4.13 5.901zM40.415 31.642c1.628 3.048 6.096 3.837 6.096 3.837s1.83-4.152.202-7.2c-1.628-3.048-6.096-3.837-6.096-3.837s-1.83 4.153-.202 7.2zM66.38 49.557c0 1.62-1.07 3.11-2.72 3.56l-10.951 3.01-14.58 4.02c-.59.15-1.19.06-1.71-.25l-6.26-3.82-4.78-2.91a2.18 2.18 0 00-1.69-.24l-7.295 2.085-3.44-12.47 6.155-1.745.53-.15 7.74-2.13c.02-.01.05-.01.07-.02 1.13-.29 2.3-.27 3.39.04.48.13.93.31 1.36.54l14.88 8.15c.92.51 1.55 1.34 1.81 2.28l12.8-3.53c1.98-.54 4.01.61 4.56 2.59.08.32.13.66.13.99z"/><path class="mst3" d="M47.082 47.227a3.73 3.73 0 011.802 2.277 3.688 3.688 0 01-.324 2.73l-.01.011a3.69 3.69 0 01-5.018 1.479L33.496 48.23"/></svg><svg version="1.1" id="semena_white" x="0" y="0" viewBox="0 0 79.333 79.333" xml:space="preserve" xmlns="http://www.w3.org/2000/svg"><style>.nst0{fill:none;stroke:#fff;stroke-width:1.2;stroke-miterlimit:10}</style><path class="nst0" d="M57.168 26.317c-1.774 2.964-6.276 3.535-6.276 3.535s-1.625-4.237.15-7.202c1.774-2.964 6.275-3.534 6.275-3.534s1.625 4.236-.15 7.2zM56.618 40.233c-3.124 1.477-7.182-.553-7.182-.553s1.007-4.425 4.13-5.901c3.124-1.477 7.182.553 7.182.553s-1.006 4.425-4.13 5.901zM40.415 31.642c1.628 3.048 6.096 3.837 6.096 3.837s1.83-4.152.202-7.2c-1.628-3.048-6.096-3.837-6.096-3.837s-1.83 4.153-.202 7.2zM66.38 49.557c0 1.62-1.07 3.11-2.72 3.56l-10.951 3.01-14.58 4.02c-.59.15-1.19.06-1.71-.25l-6.26-3.82-4.78-2.91a2.18 2.18 0 00-1.69-.24l-7.295 2.085-3.44-12.47 6.155-1.745.53-.15 7.74-2.13c.02-.01.05-.01.07-.02 1.13-.29 2.3-.27 3.39.04.48.13.93.31 1.36.54l14.88 8.15c.92.51 1.55 1.34 1.81 2.28l12.8-3.53c1.98-.54 4.01.61 4.56 2.59.08.32.13.66.13.99z"/><path class="nst0" d="M47.082 47.227a3.73 3.73 0 011.802 2.277 3.688 3.688 0 01-.324 2.73l-.01.011a3.69 3.69 0 01-5.018 1.479L33.496 48.23"/></svg><svg viewBox="0 0 15 10" id="vk" xmlns="http://www.w3.org/2000/svg"><path fill="#fff" d="M15.057 8.577a.947.947 0 00-.051-.098c-.262-.471-.762-1.05-1.5-1.735l-.015-.016-.008-.007-.008-.008h-.008a9.256 9.256 0 01-.636-.644c-.162-.21-.199-.422-.11-.636.063-.162.299-.504.707-1.028.214-.277.384-.5.51-.667.905-1.204 1.298-1.973 1.177-2.308l-.046-.078c-.032-.047-.113-.09-.243-.13a1.23 1.23 0 00-.503-.02l-2.26.016a.293.293 0 00-.158.004 8.817 8.817 0 00-.102.024l-.04.02-.03.023a.356.356 0 00-.087.082.547.547 0 00-.078.137 12.795 12.795 0 01-.84 1.766 17.07 17.07 0 01-.534.845 4.085 4.085 0 01-.408.525c-.11.113-.21.204-.299.27-.088.07-.156.098-.204.088a3.67 3.67 0 01-.133-.032.52.52 0 01-.177-.192.864.864 0 01-.09-.307 3.343 3.343 0 01-.027-.317 6.827 6.827 0 01.003-.377 9.86 9.86 0 00.008-.33c0-.198.004-.415.012-.648.008-.233.014-.417.02-.553.005-.136.007-.28.007-.431 0-.152-.009-.272-.027-.358a1.204 1.204 0 00-.082-.25.422.422 0 00-.161-.19.917.917 0 00-.263-.106A5.296 5.296 0 007.313.81C6.34.8 5.714.862 5.437 1c-.11.057-.21.135-.298.234-.095.115-.108.179-.04.189.314.047.537.16.668.337l.047.095c.036.068.073.189.11.36.036.173.06.364.07.573.026.383.026.71 0 .982s-.05.484-.074.636a1.29 1.29 0 01-.2.541.138.138 0 01-.04.04.597.597 0 01-.212.039c-.073 0-.162-.036-.267-.11a1.867 1.867 0 01-.325-.302 4.037 4.037 0 01-.381-.538 9.425 9.425 0 01-.44-.816l-.125-.23a20 20 0 01-.322-.64 12 12 0 01-.361-.812.52.52 0 00-.189-.252l-.039-.023a.812.812 0 00-.306-.118l-2.151.016c-.22 0-.369.05-.447.15l-.032.046a.255.255 0 00-.023.125c0 .058.015.129.047.213.314.738.655 1.45 1.024 2.135.369.685.69 1.238.962 1.656.272.419.55.814.832 1.186.282.371.47.61.561.714.092.104.164.183.216.235l.196.189a4.6 4.6 0 00.554.45 8.9 8.9 0 00.808.52c.296.17.64.308 1.033.415.392.108.774.151 1.146.13h.902c.183-.016.322-.073.416-.173l.032-.039a.53.53 0 00.059-.145.8.8 0 00.027-.216 2.59 2.59 0 01.05-.609c.04-.18.085-.316.134-.407a.992.992 0 01.303-.346.583.583 0 01.063-.028c.125-.041.273-.001.443.122.17.123.33.275.48.455.148.181.328.384.537.61.21.224.392.391.55.502l.156.093c.105.064.241.121.409.173a.88.88 0 00.44.04l2.009-.032c.198 0 .353-.032.463-.098.11-.065.175-.137.196-.216a.604.604 0 00.004-.266.97.97 0 00-.055-.209z"/></svg><svg viewBox="0 0 14 10" id="youtube" xmlns="http://www.w3.org/2000/svg"><path fill="#fff" d="M13.555 4.998c0 1.028 0 2.118-.229 3.115-.16.7-.73 1.218-1.416 1.295-1.624.182-3.269.183-4.907.182-1.637.001-3.282 0-4.906-.182A1.66 1.66 0 01.68 8.113C.452 7.116.452 6.026.452 4.998c0-1.027.003-2.116.231-3.114.16-.7.73-1.218 1.416-1.295C3.724.407 5.37.406 7.006.407c1.637-.001 3.282 0 4.907.182a1.66 1.66 0 011.416 1.295c.228.998.226 2.087.226 3.114zM9.48 4.872L5.313 2.687v4.357L9.48 4.872z"/></svg><svg version="1.1" id="zerno" x="0" y="0" viewBox="0 0 110 117" xml:space="preserve" xmlns="http://www.w3.org/2000/svg"><style>.qst0{fill:#fff;stroke:#007d2f;stroke-width:1.2;stroke-miterlimit:10}.qst1{opacity:.1;fill:#007d2f}</style><path class="qst0" d="M37.498 58.516l-4.703-4.243a2.964 2.964 0 01-.979-2.201V46.04l4.704 4.243c.623.562.978 1.362.978 2.2v6.032zM37.498 65.927l-4.703-4.243a2.964 2.964 0 01-.979-2.201v-6.031l4.704 4.243c.623.562.978 1.362.978 2.2v6.032zM37.498 73.338l-4.703-4.243a2.964 2.964 0 01-.979-2.201v-6.031l4.704 4.243c.623.562.978 1.362.978 2.2v6.032zM37.498 58.516l4.703-4.243a2.964 2.964 0 00.979-2.201V46.04l-4.703 4.243a2.964 2.964 0 00-.979 2.2v6.032zM37.498 65.927l4.703-4.243a2.964 2.964 0 00.979-2.201v-6.031l-4.703 4.243a2.964 2.964 0 00-.979 2.2v6.032zM37.498 73.338l4.703-4.243a2.964 2.964 0 00.979-2.201v-6.031l-4.703 4.243a2.964 2.964 0 00-.979 2.2v6.032zM43.18 46.041v-3.625M31.816 46.041v-3.625M37.498 51.534V39.302M37.498 82.569V70.336M55.238 55.6l-5.64-5.088a3.554 3.554 0 01-1.172-2.639v-7.23l5.638 5.086a3.554 3.554 0 011.174 2.64v7.23zM55.238 64.485l-5.64-5.087a3.554 3.554 0 01-1.172-2.64v-7.23l5.638 5.087a3.554 3.554 0 011.174 2.639v7.23zM55.238 73.37l-5.64-5.087a3.554 3.554 0 01-1.172-2.639v-7.23l5.638 5.086a3.554 3.554 0 011.174 2.64v7.23z"/><path class="qst0" d="M55.238 55.6l5.638-5.088a3.554 3.554 0 001.174-2.639v-7.23l-5.639 5.086a3.554 3.554 0 00-1.173 2.64v7.23zM55.238 64.485l5.638-5.087a3.554 3.554 0 001.174-2.64v-7.23l-5.639 5.087a3.554 3.554 0 00-1.173 2.639v7.23zM55.238 73.37l5.638-5.087a3.554 3.554 0 001.174-2.639v-7.23L56.41 63.5a3.554 3.554 0 00-1.173 2.64v7.23zM62.05 40.642v-4.345M48.426 40.642v-4.345M55.238 47.229V32.562M55.238 84.438V69.771"/><path class="qst1" d="M33.934 53.01a1.266 1.266 0 01-.418-.938v-2.208l1.865 1.682c.265.24.417.582.417.939v2.208l-1.864-1.682zM33.934 60.422a1.266 1.266 0 01-.418-.94v-2.207l1.865 1.682c.265.24.417.581.417.939v2.207l-1.864-1.681zM33.934 67.832a1.266 1.266 0 01-.418-.938v-2.208l1.865 1.682c.265.24.417.582.417.938v2.208l-1.864-1.682zM39.199 52.485c0-.358.151-.7.417-.939l1.864-1.682v2.208c0 .357-.152.699-.418.939L39.2 54.692v-2.207zM39.199 59.896c0-.358.151-.7.417-.94l1.864-1.68v2.207c0 .357-.152.699-.418.939L39.2 62.103v-2.207zM39.199 67.306c0-.357.151-.699.417-.938l1.864-1.682v2.208c0 .357-.152.699-.418.938L39.2 69.514v-2.208z"/><path class="qst0" d="M72.502 58.516l-4.703-4.243a2.964 2.964 0 01-.979-2.201V46.04l4.703 4.243c.623.562.979 1.362.979 2.2v6.032zM72.502 65.927l-4.703-4.243a2.964 2.964 0 01-.979-2.201v-6.031l4.703 4.243c.623.562.979 1.362.979 2.2v6.032zM72.502 73.338l-4.703-4.243a2.964 2.964 0 01-.979-2.201v-6.031l4.703 4.243c.623.562.979 1.362.979 2.2v6.032zM72.502 58.516l4.703-4.243a2.964 2.964 0 00.979-2.201V46.04l-4.704 4.243a2.964 2.964 0 00-.978 2.2v6.032zM72.502 65.927l4.703-4.243a2.964 2.964 0 00.979-2.201v-6.031l-4.704 4.243a2.964 2.964 0 00-.978 2.2v6.032z"/><path class="qst0" d="M72.502 73.338l4.703-4.243a2.964 2.964 0 00.979-2.201v-6.031l-4.704 4.243a2.964 2.964 0 00-.978 2.2v6.032zM78.184 46.041v-3.625M68.862 46.041v-3.625M72.502 51.534V39.302M72.502 82.569V70.336"/><path class="qst1" d="M68.938 53.01a1.266 1.266 0 01-.418-.938v-2.208l1.864 1.682c.266.24.418.582.418.939v2.208l-1.864-1.682zM68.938 60.422a1.266 1.266 0 01-.418-.94v-2.207l1.864 1.682c.266.24.418.581.418.939v2.207l-1.864-1.681zM68.938 67.832a1.266 1.266 0 01-.418-.938v-2.208l1.864 1.682c.266.24.418.582.418.938v2.208l-1.864-1.682zM74.202 52.485c0-.358.152-.7.417-.939l1.864-1.682v2.208c0 .357-.151.699-.417.939l-1.864 1.681v-2.207zM74.202 59.896c0-.358.152-.7.417-.94l1.864-1.68v2.207c0 .357-.151.699-.417.939l-1.864 1.681v-2.207zM74.202 67.306c0-.357.152-.699.417-.938l1.864-1.682v2.208c0 .357-.151.699-.417.938l-1.864 1.682v-2.208zM50.738 49.25a1.859 1.859 0 01-.612-1.377v-3.407l2.8 2.526c.388.35.611.853.611 1.376v3.408l-2.8-2.526zM50.738 58.136a1.859 1.859 0 01-.612-1.377V53.35l2.8 2.526c.389.351.611.853.611 1.377v3.407l-2.8-2.525zM50.738 67.02a1.856 1.856 0 01-.612-1.376v-3.408l2.8 2.527c.389.35.611.852.611 1.376v3.408l-2.8-2.526zM56.938 48.368c0-.523.223-1.025.612-1.377l2.8-2.525v3.407a1.86 1.86 0 01-.613 1.378l-2.8 2.525v-3.408zM56.938 57.254c0-.524.223-1.026.612-1.377l2.8-2.526v3.408a1.86 1.86 0 01-.613 1.377l-2.8 2.525v-3.407zM56.938 66.139c0-.524.223-1.025.612-1.376l2.8-2.527v3.408c0 .524-.223 1.026-.612 1.377l-2.8 2.526v-3.408z"/></svg><svg version="1.1" id="zerno_white" x="0" y="0" viewBox="0 0 110 117" xml:space="preserve" xmlns="http://www.w3.org/2000/svg"><style>.rst0{fill:none;stroke:#fff;stroke-width:1.2;stroke-miterlimit:10}</style><path class="rst0" d="M37.498 58.516l-4.703-4.243a2.964 2.964 0 01-.979-2.201V46.04l4.704 4.243c.623.562.978 1.362.978 2.2v6.032zM37.498 65.927l-4.703-4.243a2.964 2.964 0 01-.979-2.201v-6.031l4.704 4.243c.623.562.978 1.362.978 2.2v6.032zM37.498 73.338l-4.703-4.243a2.964 2.964 0 01-.979-2.201v-6.031l4.704 4.243c.623.562.978 1.362.978 2.2v6.032zM37.498 58.516l4.703-4.243a2.964 2.964 0 00.979-2.201V46.04l-4.703 4.243a2.964 2.964 0 00-.979 2.2v6.032zM37.498 65.927l4.703-4.243a2.964 2.964 0 00.979-2.201v-6.031l-4.703 4.243a2.964 2.964 0 00-.979 2.2v6.032zM37.498 73.338l4.703-4.243a2.964 2.964 0 00.979-2.201v-6.031l-4.703 4.243a2.964 2.964 0 00-.979 2.2v6.032zM43.18 46.041v-3.625M31.816 46.041v-3.625M37.498 51.534V39.302M37.498 82.569V70.336M55.238 55.6l-5.64-5.088a3.554 3.554 0 01-1.172-2.639v-7.23l5.638 5.086a3.554 3.554 0 011.174 2.64v7.23zM55.238 64.485l-5.64-5.087a3.554 3.554 0 01-1.172-2.64v-7.23l5.638 5.087a3.554 3.554 0 011.174 2.639v7.23zM55.238 73.37l-5.64-5.087a3.554 3.554 0 01-1.172-2.639v-7.23l5.638 5.086a3.554 3.554 0 011.174 2.64v7.23z"/><path class="rst0" d="M55.238 55.6l5.638-5.088a3.554 3.554 0 001.174-2.639v-7.23l-5.639 5.086a3.554 3.554 0 00-1.173 2.64v7.23zM55.238 64.485l5.638-5.087a3.554 3.554 0 001.174-2.64v-7.23l-5.639 5.087a3.554 3.554 0 00-1.173 2.639v7.23zM55.238 73.37l5.638-5.087a3.554 3.554 0 001.174-2.639v-7.23L56.41 63.5a3.554 3.554 0 00-1.173 2.64v7.23zM62.05 40.642v-4.345M48.426 40.642v-4.345M55.238 47.229V32.562M55.238 84.438V69.771M72.502 58.516l-4.703-4.243a2.964 2.964 0 01-.979-2.201V46.04l4.703 4.243c.623.562.979 1.362.979 2.2v6.032zM72.502 65.927l-4.703-4.243a2.964 2.964 0 01-.979-2.201v-6.031l4.703 4.243c.623.562.979 1.362.979 2.2v6.032zM72.502 73.338l-4.703-4.243a2.964 2.964 0 01-.979-2.201v-6.031l4.703 4.243c.623.562.979 1.362.979 2.2v6.032zM72.502 58.516l4.703-4.243a2.964 2.964 0 00.979-2.201V46.04l-4.704 4.243a2.964 2.964 0 00-.978 2.2v6.032zM72.502 65.927l4.703-4.243a2.964 2.964 0 00.979-2.201v-6.031l-4.704 4.243a2.964 2.964 0 00-.978 2.2v6.032z"/><path class="rst0" d="M72.502 73.338l4.703-4.243a2.964 2.964 0 00.979-2.201v-6.031l-4.704 4.243a2.964 2.964 0 00-.978 2.2v6.032zM78.184 46.041v-3.625M68.862 46.041v-3.625M72.502 51.534V39.302M72.502 82.569V70.336"/></svg></svg>