<?xml version="1.0" encoding="utf-8"?><svg viewBox="0 0 15 15" xmlns="http://www.w3.org/2000/svg" xmlns:xlink="http://www.w3.org/1999/xlink"><style>:root>svg{display:none}:root>svg:target{display:block}</style><svg viewBox="0 0 8 5" id="arrow-down" xmlns="http://www.w3.org/2000/svg"><path fill="#1b1b1b" d="M7.998.797L4.749 4.209l-.748.786-.748-.786L.005.797.752.01l3.249 3.412L7.25.011z"/></svg><svg viewBox="0 0 8 15" id="fb" xmlns="http://www.w3.org/2000/svg"><path fill="#fff" d="M2.252 3.261v1.905H.856v2.33h1.396v6.925H5.12V7.497h1.924s.18-1.118.268-2.339H5.13V3.564c0-.237.312-.558.621-.558h1.563V.58H5.19c-3.009 0-2.938 2.333-2.938 2.681z"/></svg><svg viewBox="0 0 12 12" id="inst" xmlns="http://www.w3.org/2000/svg"><path fill="#fff" d="M2.975-.062h6.06c1.525 0 3.029 1.472 3.029 3.029v6.059c0 1.557-1.504 3.03-3.03 3.03H2.975c-1.557 0-3.03-1.506-3.03-3.03v-6.06c0-1.556 1.536-3.028 3.03-3.028zM3 6.03a3.031 3.031 0 106.062 0A3.031 3.031 0 003 6.03zm5.531-3.56c0 .552.455 1 1.016 1 .56 0 1.015-.448 1.015-1 0-.553-.454-1-1.015-1-.561 0-1.016.447-1.016 1z"/></svg><svg viewBox="0 0 15 10" id="vk" xmlns="http://www.w3.org/2000/svg"><path fill="#fff" d="M15.057 8.577a.947.947 0 00-.051-.098c-.262-.471-.762-1.05-1.5-1.735l-.015-.016-.008-.007-.008-.008h-.008a9.256 9.256 0 01-.636-.644c-.162-.21-.199-.422-.11-.636.063-.162.299-.504.707-1.028.214-.277.384-.5.51-.667.905-1.204 1.298-1.973 1.177-2.308l-.046-.078c-.032-.047-.113-.09-.243-.13a1.23 1.23 0 00-.503-.02l-2.26.016a.293.293 0 00-.158.004 8.817 8.817 0 00-.102.024l-.04.02-.03.023a.356.356 0 00-.087.082.547.547 0 00-.078.137 12.795 12.795 0 01-.84 1.766 17.07 17.07 0 01-.534.845 4.085 4.085 0 01-.408.525c-.11.113-.21.204-.299.27-.088.07-.156.098-.204.088a3.67 3.67 0 01-.133-.032.52.52 0 01-.177-.192.864.864 0 01-.09-.307 3.343 3.343 0 01-.027-.317 6.827 6.827 0 01.003-.377 9.86 9.86 0 00.008-.33c0-.198.004-.415.012-.648.008-.233.014-.417.02-.553.005-.136.007-.28.007-.431 0-.152-.009-.272-.027-.358a1.204 1.204 0 00-.082-.25.422.422 0 00-.161-.19.917.917 0 00-.263-.106A5.296 5.296 0 007.313.81C6.34.8 5.714.862 5.437 1c-.11.057-.21.135-.298.234-.095.115-.108.179-.04.189.314.047.537.16.668.337l.047.095c.036.068.073.189.11.36.036.173.06.364.07.573.026.383.026.71 0 .982s-.05.484-.074.636a1.29 1.29 0 01-.2.541.138.138 0 01-.04.04.597.597 0 01-.212.039c-.073 0-.162-.036-.267-.11a1.867 1.867 0 01-.325-.302 4.037 4.037 0 01-.381-.538 9.425 9.425 0 01-.44-.816l-.125-.23a20 20 0 01-.322-.64 12 12 0 01-.361-.812.52.52 0 00-.189-.252l-.039-.023a.812.812 0 00-.306-.118l-2.151.016c-.22 0-.369.05-.447.15l-.032.046a.255.255 0 00-.023.125c0 .058.015.129.047.213.314.738.655 1.45 1.024 2.135.369.685.69 1.238.962 1.656.272.419.55.814.832 1.186.282.371.47.61.561.714.092.104.164.183.216.235l.196.189a4.6 4.6 0 00.554.45 8.9 8.9 0 00.808.52c.296.17.64.308 1.033.415.392.108.774.151 1.146.13h.902c.183-.016.322-.073.416-.173l.032-.039a.53.53 0 00.059-.145.8.8 0 00.027-.216 2.59 2.59 0 01.05-.609c.04-.18.085-.316.134-.407a.992.992 0 01.303-.346.583.583 0 01.063-.028c.125-.041.273-.001.443.122.17.123.33.275.48.455.148.181.328.384.537.61.21.224.392.391.55.502l.156.093c.105.064.241.121.409.173a.88.88 0 00.44.04l2.009-.032c.198 0 .353-.032.463-.098.11-.065.175-.137.196-.216a.604.604 0 00.004-.266.97.97 0 00-.055-.209z"/></svg><svg viewBox="0 0 14 10" id="youtube" xmlns="http://www.w3.org/2000/svg"><path fill="#fff" d="M13.555 4.998c0 1.028 0 2.118-.229 3.115-.16.7-.73 1.218-1.416 1.295-1.624.182-3.269.183-4.907.182-1.637.001-3.282 0-4.906-.182A1.66 1.66 0 01.68 8.113C.452 7.116.452 6.026.452 4.998c0-1.027.003-2.116.231-3.114.16-.7.73-1.218 1.416-1.295C3.724.407 5.37.406 7.006.407c1.637-.001 3.282 0 4.907.182a1.66 1.66 0 011.416 1.295c.228.998.226 2.087.226 3.114zM9.48 4.872L5.313 2.687v4.357L9.48 4.872z"/></svg></svg>